<svg xmlns="http://www.w3.org/2000/svg" id="Layer_1" data-name="Layer 1" viewBox="0 0 595.28 83.91"><defs><style>.cls-1{fill:#231f20;}.cls-2{fill:#f99f36;}.cls-3,.cls-4{fill:#58595b;}.cls-4{fill-rule:evenodd;}</style></defs><polygon class="cls-1" points="569.27 75.1 570.1 73.32 578.2 73.32 579.02 75.1 569.27 75.1"></polygon><path class="cls-1" d="M568.18,78.65a1,1,0,0,1-.89-.49,1.05,1.05,0,0,1-.06-1.06L573,63.24a1,1,0,0,1,1-.72,1,1,0,0,1,1,.72l5.83,13.91a1.09,1.09,0,0,1-.07,1,1,1,0,0,1-.9.46,1.15,1.15,0,0,1-.59-.17,1,1,0,0,1-.4-.49l-5.13-12.72h.58L569.17,78a1.08,1.08,0,0,1-1,.66Z"></path><path class="cls-1" d="M549.52,67.33a7.65,7.65,0,0,0-1.66-2.55,7.3,7.3,0,0,0-2.53-1.67,8.56,8.56,0,0,0-3.23-.59h-3.74a1,1,0,0,0-.76.3,1,1,0,0,0-.31.78v14a1.06,1.06,0,0,0,1.07,1.07h3.74a8.37,8.37,0,0,0,3.23-.59,7.3,7.3,0,0,0,2.53-1.67,7.5,7.5,0,0,0,1.66-2.56,9.4,9.4,0,0,0,0-6.5Zm-2.25,6.44a5.67,5.67,0,0,1-2.1,2.19,5.87,5.87,0,0,1-3.07.79h-2.66V64.42h2.66a5.87,5.87,0,0,1,3.07.79,5.55,5.55,0,0,1,2.1,2.17,7.1,7.1,0,0,1,0,6.39Z"></path><path class="cls-1" d="M508.14,78.65a1,1,0,0,1-.77-.31,1,1,0,0,1-.31-.76v-14a1,1,0,0,1,1.08-1.08h9.33a1.06,1.06,0,0,1,.77.28,1,1,0,0,1,.29.73.94.94,0,0,1-.29.71,1.14,1.14,0,0,1-.77.26h-8.26v5h5.93a1.06,1.06,0,0,1,.76.28,1,1,0,0,1,0,1.43,1.06,1.06,0,0,1-.76.28h-5.93v5.16h8.26a1.1,1.1,0,0,1,.77.27.92.92,0,0,1,.29.7,1,1,0,0,1-.29.73,1.06,1.06,0,0,1-.77.28Z"></path><path class="cls-1" d="M481.61,78.65a1,1,0,0,1-1-.68l-6.06-13.84a1.38,1.38,0,0,1-.06-1.15.87.87,0,0,1,.87-.46,1,1,0,0,1,1,.64l5.31,12.75h-.23l5.41-12.75a1,1,0,0,1,.39-.5,1.09,1.09,0,0,1,.59-.14.88.88,0,0,1,.85.45,1,1,0,0,1,0,1l-6.11,14a1.36,1.36,0,0,1-.38.51A1,1,0,0,1,481.61,78.65Z"></path><path class="cls-1" d="M457.72,77l-3.16-5.08.23-.1a4.71,4.71,0,0,0,1.87-1.72,4.66,4.66,0,0,0,.67-2.5,5.08,5.08,0,0,0-.67-2.64,4.81,4.81,0,0,0-1.87-1.79,5.73,5.73,0,0,0-2.75-.65h-3.72a1.06,1.06,0,0,0-.76.3,1,1,0,0,0-.31.78v14a1,1,0,0,0,.31.76,1.11,1.11,0,0,0,1.54,0,1,1,0,0,0,.3-.76V72.44H452l.38,0L456,78.14a1,1,0,0,0,.4.39,1.15,1.15,0,0,0,.53.12,1,1,0,0,0,.93-.52A1.11,1.11,0,0,0,457.72,77Zm-8.32-6.55v-6H452a3.36,3.36,0,0,1,1.67.4A2.79,2.79,0,0,1,454.85,66a3.09,3.09,0,0,1,.41,1.61,2.66,2.66,0,0,1-.41,1.48,2.74,2.74,0,0,1-1.14,1,3.7,3.7,0,0,1-1.67.36Z"></path><path class="cls-1" d="M420.78,79a8,8,0,0,1-3.51-.73,5.79,5.79,0,0,1-2.38-2,5.23,5.23,0,0,1-.86-3V63.6a1,1,0,0,1,.31-.78,1,1,0,0,1,.76-.3,1,1,0,0,1,1.08,1.08v9.64a3.39,3.39,0,0,0,.58,2,4,4,0,0,0,1.64,1.35,5.62,5.62,0,0,0,2.38.48,5.3,5.3,0,0,0,2.31-.48,3.91,3.91,0,0,0,1.57-1.35,3.52,3.52,0,0,0,.56-2V63.6a1,1,0,0,1,1.08-1.08,1,1,0,0,1,.76.3,1.09,1.09,0,0,1,.29.78v9.64a5.38,5.38,0,0,1-.84,3,5.68,5.68,0,0,1-2.32,2A7.6,7.6,0,0,1,420.78,79Z"></path><path class="cls-1" d="M389.25,78.65a1.06,1.06,0,0,1-1.05-1.07V72.77l-5.51-8.58a1.17,1.17,0,0,1-.21-.81.94.94,0,0,1,.36-.62,1.07,1.07,0,0,1,.69-.24.87.87,0,0,1,.56.16,1.55,1.55,0,0,1,.39.44l5.25,8.32h-.83l5.33-8.4a1.11,1.11,0,0,1,.95-.52.82.82,0,0,1,.62.26,1,1,0,0,1,.29.64,1.19,1.19,0,0,1-.2.77l-5.56,8.58v4.81a1,1,0,0,1-.31.76A1,1,0,0,1,389.25,78.65Z"></path><polygon class="cls-1" points="356.24 75.1 357.07 73.32 365.16 73.32 365.99 75.1 356.24 75.1"></polygon><path class="cls-1" d="M355.14,78.65a1,1,0,0,1-.88-.49,1.08,1.08,0,0,1-.07-1.06L360,63.24a1,1,0,0,1,1-.72,1,1,0,0,1,1,.72l5.83,13.91a1.09,1.09,0,0,1-.07,1,1,1,0,0,1-.9.46,1.12,1.12,0,0,1-.59-.17,1,1,0,0,1-.4-.49l-5.13-12.72h.58L356.14,78a1.08,1.08,0,0,1-1,.66Z"></path><path class="cls-1" d="M320.22,78.86a1,1,0,0,1-.76-.31,1,1,0,0,1-.31-.76v-14a1,1,0,0,1,.31-.77,1,1,0,0,1,.76-.3h9.34a1,1,0,0,1,.76.28,1,1,0,0,1,.29.73.92.92,0,0,1-.29.7,1.07,1.07,0,0,1-.76.27h-8.27v5h5.93A1.06,1.06,0,0,1,328,70a1,1,0,0,1,0,1.42,1.06,1.06,0,0,1-.77.28h-5.93v6.08a1,1,0,0,1-.31.76A1,1,0,0,1,320.22,78.86Z"></path><path class="cls-1" d="M306.07,67.46a7.62,7.62,0,0,0-4.29-4.33,9.34,9.34,0,0,0-6.64,0,7.6,7.6,0,0,0-2.59,1.71,7.73,7.73,0,0,0-1.69,2.62,8.88,8.88,0,0,0-.6,3.32,9,9,0,0,0,.6,3.34,7.63,7.63,0,0,0,1.69,2.62,7.48,7.48,0,0,0,2.59,1.72,9.34,9.34,0,0,0,6.64,0,7.67,7.67,0,0,0,4.29-4.34,9.19,9.19,0,0,0,.59-3.34A9.08,9.08,0,0,0,306.07,67.46Zm-1.92,5.82a5.73,5.73,0,0,1-1.27,2,5.9,5.9,0,0,1-1.95,1.34,6.57,6.57,0,0,1-4.93,0,5.8,5.8,0,0,1-1.95-1.34,6.36,6.36,0,0,1-1.27-2,6.81,6.81,0,0,1-.45-2.5,6.89,6.89,0,0,1,.45-2.5,6.31,6.31,0,0,1,1.27-2A5.64,5.64,0,0,1,296,64.94a6.57,6.57,0,0,1,4.93,0,5.84,5.84,0,0,1,3.22,3.34,6.89,6.89,0,0,1,.45,2.5A6.81,6.81,0,0,1,304.15,73.28Z"></path><path class="cls-1" d="M255.1,78.86a1,1,0,0,1-.76-.31,1,1,0,0,1-.31-.76v-14a1,1,0,0,1,.31-.77,1,1,0,0,1,.76-.3h9.34a1,1,0,0,1,.76.28,1,1,0,0,1,.29.73.92.92,0,0,1-.29.7,1.07,1.07,0,0,1-.76.27h-8.26v5h5.92a1,1,0,0,1,.77.28,1,1,0,0,1,0,1.42,1,1,0,0,1-.77.28h-5.92v5.17h8.26a1.07,1.07,0,0,1,.76.27.9.9,0,0,1,.29.7,1,1,0,0,1-.29.73,1,1,0,0,1-.76.28Z"></path><path class="cls-1" d="M234.52,79.07a7.57,7.57,0,0,1-2.52-.42,6.45,6.45,0,0,1-2.08-1.15,4.57,4.57,0,0,1-1.31-1.72.84.84,0,0,1,0-.8,1,1,0,0,1,.74-.48,1,1,0,0,1,.73.12,1.29,1.29,0,0,1,.55.58,2.64,2.64,0,0,0,.81,1,4.72,4.72,0,0,0,1.38.71,5.29,5.29,0,0,0,1.69.26,5.17,5.17,0,0,0,1.83-.31,3.16,3.16,0,0,0,1.35-.89,2.12,2.12,0,0,0,.52-1.46,2.73,2.73,0,0,0-.86-2,4.55,4.55,0,0,0-2.82-1.08,7,7,0,0,1-4-1.5,4,4,0,0,1-1.46-3.12,3.6,3.6,0,0,1,.76-2.32A4.74,4.74,0,0,1,231.89,63a8.21,8.21,0,0,1,2.92-.5,6.39,6.39,0,0,1,2.2.35,5.35,5.35,0,0,1,1.64,1,6.46,6.46,0,0,1,1.22,1.47,1.34,1.34,0,0,1,.24.86.87.87,0,0,1-.4.63,1,1,0,0,1-.85.1,1.15,1.15,0,0,1-.68-.54,3.55,3.55,0,0,0-1.92-1.66,4.31,4.31,0,0,0-1.51-.24,5,5,0,0,0-2.56.57,2,2,0,0,0-1,1.81,2.44,2.44,0,0,0,.32,1.19,2.64,2.64,0,0,0,1.18,1,7.86,7.86,0,0,0,2.47.58A6.46,6.46,0,0,1,239,71.1a4.24,4.24,0,0,1,1.38,3.3,4.16,4.16,0,0,1-.49,2,4.44,4.44,0,0,1-1.3,1.46,5.92,5.92,0,0,1-1.86.88A8.16,8.16,0,0,1,234.52,79.07Z"></path><path class="cls-1" d="M213.78,78.86a1,1,0,0,1-.77-.31,1.07,1.07,0,0,1-.31-.76v-14a1.08,1.08,0,1,1,2.15,0v14a1.06,1.06,0,0,1-.3.76A1,1,0,0,1,213.78,78.86Z"></path><path class="cls-1" d="M183.08,78.86a1,1,0,0,1-.77-.31,1.07,1.07,0,0,1-.31-.76v-14a1,1,0,0,1,1.08-1.07,1,1,0,0,1,.95.58l6.46,13h-.66l6.3-13a1,1,0,0,1,1-.58,1.08,1.08,0,0,1,.77.3,1,1,0,0,1,.3.77v14a1,1,0,0,1-.32.76,1.07,1.07,0,0,1-1.82-.76v-11l.41-.11L191,77.7a1.08,1.08,0,0,1-.93.54,1,1,0,0,1-1-.64l-5.35-10.72.41-.1v11a1.06,1.06,0,0,1-1.07,1.07Z"></path><path class="cls-1" d="M167.62,67.46a7.73,7.73,0,0,0-1.69-2.62,7.84,7.84,0,0,0-2.6-1.71,8.63,8.63,0,0,0-3.31-.61,8.77,8.77,0,0,0-3.33.61,7.7,7.7,0,0,0-2.59,1.71,7.85,7.85,0,0,0-1.68,2.62,8.88,8.88,0,0,0-.6,3.32,9,9,0,0,0,.6,3.34,7.76,7.76,0,0,0,1.68,2.62,7.58,7.58,0,0,0,2.59,1.72,9,9,0,0,0,3.33.61,8.83,8.83,0,0,0,3.31-.61,7.72,7.72,0,0,0,2.6-1.72,7.63,7.63,0,0,0,1.69-2.62,9,9,0,0,0,.6-3.34A8.88,8.88,0,0,0,167.62,67.46Zm-1.91,5.82a6,6,0,0,1-1.27,2,5.9,5.9,0,0,1-1.95,1.34,6.6,6.6,0,0,1-4.94,0,5.76,5.76,0,0,1-1.94-1.34,6,6,0,0,1-1.27-2,6.62,6.62,0,0,1-.46-2.5,6.69,6.69,0,0,1,.46-2.5,6,6,0,0,1,1.27-2,5.6,5.6,0,0,1,1.94-1.33,6.6,6.6,0,0,1,4.94,0,5.73,5.73,0,0,1,1.95,1.33,6,6,0,0,1,1.27,2,7.1,7.1,0,0,1,.44,2.5A7,7,0,0,1,165.71,73.28Z"></path><path class="cls-1" d="M139.56,77.21l-3.16-5.09.23-.1a4.57,4.57,0,0,0,2.54-4.21,5,5,0,0,0-.67-2.64,4.74,4.74,0,0,0-1.87-1.79,5.62,5.62,0,0,0-2.75-.65h-3.72a1.06,1.06,0,0,0-.76.3,1,1,0,0,0-.31.77v14a1.09,1.09,0,0,0,1.85.76,1.06,1.06,0,0,0,.3-.76V72.64h2.64l.38,0,3.55,5.72a1.09,1.09,0,0,0,.4.4,1.15,1.15,0,0,0,.53.12,1,1,0,0,0,.93-.53A1.1,1.1,0,0,0,139.56,77.21Zm-4-6.91a3.74,3.74,0,0,1-1.68.36h-2.64v-6h2.64a3.5,3.5,0,0,1,1.68.39,2.85,2.85,0,0,1,1.13,1.1,3.06,3.06,0,0,1,.41,1.61,2.68,2.68,0,0,1-.41,1.48A2.77,2.77,0,0,1,135.56,70.3Z"></path><path class="cls-1" d="M115.63,65.3a4.79,4.79,0,0,0-1.87-1.89,5.42,5.42,0,0,0-2.75-.68h-4.13a1.08,1.08,0,0,0-.77.3,1,1,0,0,0-.31.77v14a1.07,1.07,0,0,0,.31.76,1,1,0,0,0,.77.31,1,1,0,0,0,.77-.31,1.06,1.06,0,0,0,.3-.76V73.26H111a5.62,5.62,0,0,0,2.75-.66,4.73,4.73,0,0,0,1.87-1.84,5.38,5.38,0,0,0,.67-2.68A5.69,5.69,0,0,0,115.63,65.3Zm-1.81,4.43a3.12,3.12,0,0,1-1.14,1.14,3.36,3.36,0,0,1-1.67.41H108V64.71H111a3.27,3.27,0,0,1,1.67.43,3.18,3.18,0,0,1,1.14,1.19,3.65,3.65,0,0,1,.41,1.75A3.31,3.31,0,0,1,113.82,69.73Z"></path><path class="cls-2" d="M54.69,66.33l-.45.41.18-.12Zm-13.53,3.2-.33,0,.33,0c.7,0,1.05.18,1,.23.37-.07.07-.13-.15-.2s-.39-.12.24-.18c-.81,0-.78,0-.69,0S41.76,69.54,41.16,69.53Zm-3.83-.22q.56,0,1.11,0a11.6,11.6,0,0,1-1.55-.1c-.53-.05-1-.1-.93,0a5.62,5.62,0,0,0,1.61.2ZM23.79,63.47c.41.36.83.49.74.38l-.81-.65c.12.27.23.18.67.58ZM22.6,22.08c-.36.17.75-.75.12-.31C22.24,22.25,22.49,22.11,22.6,22.08Zm5.76-4.49.45-.41-.18.12Zm13.53-3.2h0c-.7-.05-1-.18-1-.23-.37.07-.07.13.15.19s.39.13-.24.19c.81,0,.78,0,.69,0S41.29,14.37,41.89,14.39Zm3.83.22-1.11,0c.37,0,1,0,1.55.1s1,.11.93,0a5.92,5.92,0,0,0-1.61-.19Zm13.54,5.84c-.4-.36-.83-.49-.74-.38l.81.64c-.12-.27-.22-.18-.67-.58Zm6.06,37.41a3.26,3.26,0,0,0,.37-.6C65.59,57.26,65.49,57.61,65.32,57.86ZM13.23,40.54a14.89,14.89,0,0,0,.37,3.4s-.06,0-.08-.1,0,.11,0,.29c-.07,0,0-.58-.13-.51a6.08,6.08,0,0,0,.08.65c-.1-.4-.09.67,0,1.08s.23,1.16.37,1.9.32,1.52.51,2.14c0-.11-.12-.32-.11-.17.24.88.42,1.5.63,2.14a19.59,19.59,0,0,0,.92,2.25l.37.24a.34.34,0,0,1-.12-.08c.39.82.6,1,.72.95a.52.52,0,0,0,.13-.06,23.47,23.47,0,0,0,1.5,2.44c-.27-.18-.33-.11-.65-.4.27.35.33.21.68.75s-.14-.06-.22-.09a3.13,3.13,0,0,1,.62.89,2.36,2.36,0,0,0,.6.8c0-.26.14-.11-.16-.71.44.49.86,1.21.7,1.27h.2c.07.14.4.54.4.59l.2.11a6.08,6.08,0,0,0-1-1.37c.05,0,.08,0,.1,0,.42.49.86,1,1.32,1.4.27.32.46.57.64.8a7.08,7.08,0,0,0,1.36,1.43c-.41-.26-1.18-1.13-1.88-1.72.28.49.86.82,1.23,1.2-.39-.28-.48-.3-.12.14l.23.09a8.46,8.46,0,0,1,.71.68h0l-.17-.08.17.08h0s-.06-.13-.27-.35c.35.23.84.59,1.39,1L26.22,65c-.09,0-.55-.23-.87-.43s-.53-.34-.13,0A7.88,7.88,0,0,0,26,65a5.89,5.89,0,0,1,1.06.67c-.44-.15.36.35.31.39.47.19.93.36,1.4.52a11.32,11.32,0,0,0,2,.9,6.85,6.85,0,0,1-.79-.33,5.23,5.23,0,0,1,1.35.51,7.73,7.73,0,0,0,1.54.6l-.58-.11a10.38,10.38,0,0,0,2.4.62l0,.13a2.41,2.41,0,0,1,1,0c.46.06,1,.13,1.14.13a9.59,9.59,0,0,1-1.86-.38,13.26,13.26,0,0,0,3.75.47l.12,0c.11,0,.08.06,0,.09s-.08.06,0,.11a4.62,4.62,0,0,0,.95.16c-.27,0-.9,0-.79.08q-.61-.07-1.23-.18l0,.14a8.87,8.87,0,0,0,1.93.08A5.88,5.88,0,0,0,41,69.41c-.7,0-.74,0-.69,0s.18-.14-.18-.2h.08a18.62,18.62,0,0,0,3.65.24c.38,0,.59.09.36.23a11.4,11.4,0,0,0,2.34-.34c1-.22,2.11-.54,3-.83l-.46.23a3.26,3.26,0,0,0,1.67-.55,4.54,4.54,0,0,1,1-.68c-.44.24-.22.19.16.07s.94-.33,1.14-.37c.78-.48,1.36-1,2.46-1.6a1.42,1.42,0,0,0,1.14-.27l.4-.41c.69-.44,1.49-1.19,1.94-1.45l-.08.08c.76-.53.64-.72.08-.28l.1-.1a1.67,1.67,0,0,0,.24-.16l.92-.81c-.12.12-.17.18.1,0s.28-.3.28-.34l.57-.51a1,1,0,0,1-.1.32c.16-.23.41-.54.7-.88.45-.42.88-.84,1.29-1.28l-.09.15c-.27.6.15.46.35.62a3.51,3.51,0,0,0,.62-.7c.27-.35.5-.72.45-.8-.55.57.53-.95-.37.19-.16,0,.14-.58.57-1.11.05.1-.33.58,0,.29.17-.43.32-.53.11-.48l.12-.25a15.09,15.09,0,0,0,1.64-2.85.12.12,0,0,0,0-.13l0,.07,0,0a17.3,17.3,0,0,1-1.31,2.08l.06-.17c.06-.13.11-.24.14-.32a1.2,1.2,0,0,0,.26-.24c.4-.55.61-1.21,1-1.75l-.16.36a.37.37,0,0,0-.26-.1l.08-.21,0,.12a14.29,14.29,0,0,1-.66,1.58,2.77,2.77,0,0,0-.57.15l.1-.18a3.89,3.89,0,0,1-.55,1.12,10,10,0,0,1-.71.87l.14-.2a1.86,1.86,0,0,0,.73-.56l.28-.32.18-.32c0-.1.07-.19.12-.32a1.57,1.57,0,0,1-.46.2l-.4.65a4.93,4.93,0,0,1,.54-.19l-.18.3a2.69,2.69,0,0,1-.52.14l.1-.15a2.47,2.47,0,0,1,.41-.09,12.21,12.21,0,0,0,.63-1.69l.29-.53.16,0c-.15.32-.22.54-.13.58l.31-.61.4-.07a12.38,12.38,0,0,0-1.15,2.08l-.23,0-.07.22a.87.87,0,0,0,.3-.27,13.36,13.36,0,0,0,1.32-2.51l.09-.16h0a6,6,0,0,0,.67-1.43h0l0,0c0,.09.13.19.45-.77a2.23,2.23,0,0,1-.17.92,6.49,6.49,0,0,1-.49,1.12c-.24.32-.2.15-.11-.13a2.19,2.19,0,0,0,.17-.77,2.38,2.38,0,0,0-.26,1c-.28.56-.52,1.17-.78,1.71a4.1,4.1,0,0,1-.83,1.25,7.17,7.17,0,0,0-.57,1.29c0,.09.27-.17.5-.5a5.46,5.46,0,0,1,.64-.82s-.15.16-.15.11c.15-.22.3-.45.44-.68-.44.63-.11-.18.07-.54s.4-.79.41-.69l-.17.41c.32-.48.45-1.19.79-1.7,0,0,0,.2,0,.25.16-.68.43-1.28.68-2.26,0,.21,0,.41,0,.62a10.61,10.61,0,0,1,.45-1.73l.65-2c-.06.13-.14.37-.14.21.13-.73.35-1.26.39-.9a7.71,7.71,0,0,1,.12-1.64,7.07,7.07,0,0,0,.15-2l-.15-1.09A24.91,24.91,0,0,0,69.41,40s.09,0,.12.1,0-.11,0-.29c.07,0,0,.58.13.51a4.14,4.14,0,0,0-.08-.64c.1.39.09-.68,0-1.09s-.22-1.16-.37-1.9-.31-1.47-.49-2.07l0-.06,0,0c0,.11.09.24.09.12l0-.16,0-.12c-.2-.74-.37-1.29-.56-1.87a19.59,19.59,0,0,0-.92-2.25l-.37-.23s0,0,.12.08c-.39-.83-.6-1-.72-.95s-.18.17-.29,0a4.53,4.53,0,0,1-.55-.93l.15.14a3.15,3.15,0,0,0-.31-.44.17.17,0,0,0,0-.15A5.42,5.42,0,0,0,65,27a1.35,1.35,0,0,1,.34.24c-.19-.25-.28-.25-.44-.43s-.23-.4-.36-.6a4.38,4.38,0,0,0,.34.37,3.36,3.36,0,0,1-.62-.89,2.48,2.48,0,0,0-.6-.81,1.71,1.71,0,0,1,0,.18l-.48-.5c0-.13-.06-.21,0-.23h-.2c-.07-.14-.4-.54-.4-.59s0,0,.15.08l-.15-.08-.2-.12c.07.14.14.26.22.39a11,11,0,0,0-.91-.75l-.38-.5a7.08,7.08,0,0,0-1.36-1.42c.41.26,1.18,1.12,1.88,1.71-.28-.49-.86-.82-1.23-1.2.39.28.48.3.12-.13l-.23-.09a8.13,8.13,0,0,1-.71-.69h0s0,0,0,0a.7.7,0,0,1,.17.09.71.71,0,0,0-.17-.09h0s.07.13.27.36c-.35-.24-.84-.6-1.39-1L56.83,19c.09,0,.55.22.87.43s.53.33.13,0c-.26-.16-.52-.28-.82-.43A6.36,6.36,0,0,1,56,18.26c.44.14-.35-.35-.31-.4-.46-.18-.93-.35-1.4-.51a10.85,10.85,0,0,0-2-.9,5.23,5.23,0,0,1,.79.33,5.54,5.54,0,0,1-1.36-.51,7.17,7.17,0,0,0-1.54-.6l.58.11a10.38,10.38,0,0,0-2.4-.62l.05-.13a2.26,2.26,0,0,1-1,0l-1-.12a19.61,19.61,0,0,0-2.16-.27s0,0-.08,0a3.45,3.45,0,0,0-.94-.16c.26,0,.89,0,.78-.09q.62.07,1.23.18l0-.13a9,9,0,0,0-1.93-.09,5.83,5.83,0,0,0-1.29.24c.64,0,.73,0,.7,0-.74,0-1.48,0-2.22.07a3.8,3.8,0,0,0-1.62-.12c-.19,0-.25-.09-.08-.19a12,12,0,0,0-2.34.33c-1,.22-2.11.55-3,.84l.47-.24a3.27,3.27,0,0,0-1.68.55,4.19,4.19,0,0,1-1,.69c.44-.24.22-.19-.16-.07s-.93.32-1.14.36c-.78.49-1.36,1-2.46,1.61a1.38,1.38,0,0,0-1.14.27c-.14.13-.27.27-.4.41-.69.44-1.48,1.18-1.94,1.45l.08-.08c-.75.53-.64.71-.08.28-.21.2-.41.41-.61.62l0,0c-.4.42-.75.85-1.15,1.34l-.87,1.1-.11,0c.35-.4.58-.82.74-1a.21.21,0,0,1,.13-.09.31.31,0,0,1-.13.09c-.19.09-.2-.17-.06-.47-.26.39-.79,1-1.3,1.59a1.84,1.84,0,0,0-.51.07c0-.19-.3-.15-.44-.27a4.86,4.86,0,0,0-.62.7c-.27.35-.5.73-.45.8.23-.24.17-.1.1.05l-.07.07a4.52,4.52,0,0,0-.43.67l-.19.06,0-.08c0-.06-.14,0-.28.22a1.1,1.1,0,0,0-.29.28,3.72,3.72,0,0,1,.21-.39,3.26,3.26,0,0,0-.37.6l0,0c-.07.12-.14.24-.2.36a1.73,1.73,0,0,1-.25.27c.05-.05.15-.16.16-.11-.15.22-.3.45-.44.68.2-.29.24-.28.2-.14l-.18.49-.09.19c-.14.27-.4.79-.41.69l.17-.41c-.33.48-.45,1.19-.79,1.7-.05,0,0-.2,0-.25-.16.68-.42,1.28-.68,2.26l0-.62a11.75,11.75,0,0,1-.45,1.73l-.65,2c.06-.13.14-.37.14-.22-.13.73-.36,1.26-.39.9a14.52,14.52,0,0,1-.29,1.76,7.14,7.14,0,0,0-.15,2Z"></path><path class="cls-3" d="M9,37.58a.79.79,0,0,0,.06-.22L9,37.58m7.54,26.14-.18-.1C16.49,63.72,16.54,63.74,16.54,63.72ZM9.18,39.49l0-.34v-.51C9.19,38.92,9.18,39.2,9.18,39.49ZM35.76,83.55h0l-1-.17A4.17,4.17,0,0,0,35.76,83.55Zm8.11-3.26ZM74.09,61c.07-.14.15-.27.23-.43l-.23.43c-.35.61-.58,1-.83,1.34l-1,1.49c.8-1,1-1.32,1-1.19a3.43,3.43,0,0,0,.52-1A2.93,2.93,0,0,1,74.09,61ZM83,43.7c0,.29.09.6.13.9v-.33ZM71.07,65.37c.15-.18.39-.49.53-.62C71.55,64.63,70.92,65.56,71.07,65.37Zm5.68-1.75c-.08.12-.18.26-.27.41l.27-.41c.59-.88,1-1.25,1-1.13.21-.52-.08-.17-.32.08s-.42.42,0-.43c-.67,1-.61,1-.49.92S77.23,62.85,76.75,63.62ZM73.5,68.37c.3-.47.59-1,.86-1.42A20.46,20.46,0,0,1,73,68.84c-.5.65-.9,1.16-.77,1.16a10,10,0,0,0,1.51-1.9Zm-16.78,8,.14-.06c.23-.06-.09.25.19,0l.56-.35-.75.31Zm-8.81,2.71h-.18l-.87.21h.19Zm7.67,2.16c.77-.25,1.28-.65,1.07-.61-.48.19-1,.37-1.45.54.42,0,.4-.14,1.26-.42ZM3.12,60.3a5.89,5.89,0,0,0,.48.93C3.65,61.1,3.31,60.7,3.12,60.3Zm3-32.12c.07.05.24-.52.34-.81A7.92,7.92,0,0,0,6.15,28.18ZM39.25,3.62Zm-33,19.13A4.83,4.83,0,0,0,6,23.2l0,.08ZM4.74,32.17l0-.1,0,0,.06-.17a3.39,3.39,0,0,1,.29-.86c.1-.31.2-.61.31-.91l-.31.9L5.16,31c.1-.44-.12.91.34-.53A2.39,2.39,0,0,0,5.8,29a2.6,2.6,0,0,0-.33.65c-.14.3-.25.54-.21.26C5,30.68,5,31,4.68,32a9.79,9.79,0,0,1,.62-2.2c.17-.76.17-1.12.07-1.21s-.28.11-.41.46a4.8,4.8,0,0,1-.23,1.1c-.1.47-.13.72.26-.24-.07.47-.23,1.1-.38,1.77s-.27,1.21-.36,1.76a.57.57,0,0,1,.2-.19c.09-.35.19-.7.29-1h0Zm-.47,2c0-.24.09-.46.13-.64,0,.15-.06.45,0,.36s.11-.47.17-.75l-.1.07c-.06.25-.13.5-.19.76ZM7,25.47v0l0-.1ZM77,59.19c.06-.11.15-.27.25-.5v0ZM58.54,78.54l-.27.11v0ZM77.17,60.71l0-.08-.28.53C77,61,77.09,60.87,77.17,60.71ZM11.64,70.8l-.24-.24.07.08Zm.59-4.11a8.3,8.3,0,0,0,1.07,1c.39.44.63.76.87,1.07s1,.84,1.47,1.17.8.5.25-.1c-.36-.22-.72-.43-1.08-.66-.33-.42.3.15.49.26a3.45,3.45,0,0,0-.56-.7A5.05,5.05,0,0,0,14,68c0,.15.76.89.07.36S12.81,67.28,12.23,66.69Zm-1.18-1.42.24.31.52.64c.09,0,.1,0,.13,0C11.62,65.79,11.37,65.64,11.05,65.27Zm-1.7-2.65c0,.07,0,.09-.12,0,.43.68.94,1.46,1.48,2.2l-.08-.13c.32.33.65.66,1,1a20.87,20.87,0,0,1-1.42-1.88C10,63.51,9.83,63.27,9.35,62.62ZM1.42,51.11c0,.29-.11-.1-.19-.42s-.13-.57-.08,0C1.4,51.69,1.38,51.26,1.42,51.11ZM.13,40.22c0-.3-.09-.6-.13-.9v.33ZM6.37,20.3l.28-.42-.28.42c-.58.87-1,1.25-1,1.12-.21.52.08.18.31-.08s.42-.41,0,.43c.66-1,.61-1,.48-.92S5.9,21.06,6.37,20.3Zm20-12.79-.15.06c-.22.07.1-.24-.19,0l-.55.35.74-.32Zm3.84-1.87c-.34.11-.67.24-1,.37.37-.14.74-.26,1.11-.38Zm5-.84h.19l.86-.21h-.19ZM27.55,2.64c-.77.25-1.28.66-1.07.62.48-.19,1-.37,1.45-.54-.43,0-.41.14-1.26.42ZM70.89,17.22c-.35-.36-.7-.7-1.06-1A9.08,9.08,0,0,1,70.89,17.22Zm2.88,4.08c-.48-.65-.66-.9-.85-1.17a18,18,0,0,0-1.41-1.88c.33.32.66.64,1,1l-.08-.13c.54.74,1.06,1.52,1.49,2.2C73.79,21.2,73.77,21.23,73.77,21.3Zm5.77,17.87.09.35a5.45,5.45,0,0,1,.1,1.24,6.6,6.6,0,0,0-.09-.79C79.61,39.7,79.56,39.42,79.54,39.17Zm-.07,2.29c0-.37,0-.77,0-1.17,0-1-.09-1.89-.07-2.18l.05.33h0a18.55,18.55,0,0,1,.08,2.31C79.48,41,79.48,41.23,79.47,41.46ZM74.56,61.11l0,.07c-.06.11-.11.22-.16.32C74.47,61.37,74.52,61.24,74.56,61.11Zm1.6-2.67,0,.08,0-.1Zm2.51-7.74-.09.06c0-.27.11-.54.17-.75s0,.21,0,.36c0-.18.08-.4.13-.64v.2C78.8,50.19,78.74,50.44,78.67,50.7ZM80,23.62a7.13,7.13,0,0,0-.48-.94C79.48,22.81,79.82,23.22,80,23.62ZM77,55.73c-.07,0-.24.53-.33.82A6.36,6.36,0,0,0,77,55.73ZM8.75,68l-.32-.5s0,0,0,0A4.37,4.37,0,0,0,8.75,68ZM3.43,43.6l0,0v-.41C3.4,43.3,3.42,43.45,3.43,43.6Zm.32,2c0-.61-.09-1.24-.11-1.9v-.6c0-.23,0-.46,0-.7l0,1.17c0,1,.09,1.89.06,2.18ZM6.33,57h0l.1.22Zm-3-14.32,0-.69v.09l0-.09v-.4l.09.49,0-.59c0,.31,0,.7,0,1.21-.07,0-.1.13-.11.28v-.52C3.39,42.49,3.36,42.59,3.33,42.66Zm11.5-32.1,0,0,.06-.05ZM5.9,25.24v0h0Zm-.47-1.65L5,24.11,5.23,24Zm-.08-.06.28-.32.07-.16C5.64,23.06,5.51,23.27,5.35,23.53ZM3.7,25.76l.15-.27a2.08,2.08,0,0,1,0-.24Zm-1.1,3a12.19,12.19,0,0,1,.88-2.57l.11-.34c.14-.45.2-.75-.18-.12-.1.35-.35,1-.55,1.48s-.34,1-.26,1l-.07,0a2.59,2.59,0,0,0-.23,1A3.34,3.34,0,0,1,2,30.43c.08.05.22-.24.37-.79a9.85,9.85,0,0,1,.34-1.56C2.93,27.75,2.46,28.82,2.6,28.77ZM17.76,12.18l.66-.54c1-.73,1.44-1,1.81-1.26A18.92,18.92,0,0,1,22,9.26c.14,0-.32.34-.74.65s-.78.6-.51.49c-.65.4-1.29.81-1.91,1.24a3.22,3.22,0,0,0,.45-.43c.06-.05.13-.12.25-.21l-.25.21c-.6.51-1,.84-1.4,1.14a7.17,7.17,0,0,0-1.09,1.06c-.31.21-.11,0,.08-.21s.4-.4.07-.14A6.85,6.85,0,0,0,17.76,12.18Zm-1,.85.15-.14a4.78,4.78,0,0,1-.59.67l-.1.07ZM46.35.3c-.32,0-.65,0-1,.08l.38-.15A1.81,1.81,0,0,0,46.35.3ZM31.08,5.2c-.86.16-1.71.33-2.53.51-.3.21-.74.52-1,.72,1.37-.46.59-.1.73,0h0c.1,0,.05,0,0,0a1.73,1.73,0,0,0-.41.17c-.18.11.28,0,.34,0,1.4-.62,2.9-1.07,3.45-1.44h-.21c-.36.08-.62.29-1.06.37A4.46,4.46,0,0,1,31.08,5.2Zm4.65-.8-1.36.22a7.73,7.73,0,0,1-.88.25c.19.08,1.29-.31,2.11-.39ZM56.09,2.66l-.53-.22h.34C56.62,2.69,56,2.58,56.09,2.66Zm2.83,1.42c-.66-.38-1.38-.76-2.14-1.11h0a17.83,17.83,0,0,1,1.82.66c-.07,0-.12.08.69.46.06,0,0-.13.66.17.16.23-.25,0-.62-.12S58.68,3.85,58.92,4.08ZM54.13,6c.46.11.91.23,1.36.36l.36.15C55.1,6.2,54.93,6.34,54.13,6Zm-2-.5c.51.12,1,.24,1.56.38a4.9,4.9,0,0,0,1,.44C53.8,6,53,5.78,52.1,5.49Zm-4.25-.92c.77.15,2.37.48,4.22.91l.88.44c-.32-.11-.65-.2-1-.3l.8.34c-.93-.28-1.94-.55-2.84-.79S48.35,4.75,47.85,4.57ZM67.5,14q1,.84,2,1.8l.38.43-.74-.66c-.68-.53,0,.21.07.35a5.4,5.4,0,0,1-.77-.72,3,3,0,0,1-.56-.7c.18.11.81.67.48.25l-1.07-.65c-.55-.61-.26-.47.25-.11ZM56.76,6.72l-.29,0-.67-.32Zm17.95,9.74-.21-.27-.72-.93h0a8.38,8.38,0,0,1,.88,1.16S74.72,16.45,74.71,16.46Zm0,0h.08c.07,0,.14,0,.08-.13a5.19,5.19,0,0,0-.75-1,3.71,3.71,0,0,1,1,1,13.46,13.46,0,0,1,1.06,1.49c.24.53.07.35-.21,0s-.67-.8-.83-.84a4.51,4.51,0,0,0,1,1.11c.52.79,1.1,1.58,1.58,2.32.15.23.29.46.41.68,0-.06-1.61-2.17-3.44-4.55Zm-3.55,1.23.86.89,0,.06C71.76,18.28,71.51,18.13,71.18,17.71ZM80.46,26l0,.08h0Zm-2.58-5.09A13.54,13.54,0,0,1,78.66,22a6.09,6.09,0,0,0-.47-1ZM74.42,22.3l.06-.05a4,4,0,0,0-.31-.34ZM77.3,54.72,78,53.64a15.57,15.57,0,0,1,.47-1.7c-.11.45-.21,1-.33,1.46l.24-.41.17-.73c.13-.59.27-1.21.35-1.76a.42.42,0,0,1-.2.2c-.09.35-.18.69-.29,1l0,.1h0l0,.15a3.61,3.61,0,0,1-.29.87c-.1.31-.21.61-.32.92l.31-.91A.35.35,0,0,1,78,53c-.1.44.11-.92-.34.53A3.39,3.39,0,0,0,77.3,54.72Zm2.59-15.28c0-.72,0-1.38,0-1.92l-.09,0v.09a.72.72,0,0,1-.08.34l0-.4.11,0v.08C79.78,38.06,79.83,38.74,79.89,39.44Zm0,1h0Zm-.1,2.07v-.1l0-.44,0-.09,0,.34c0-.33,0-.66,0-1a1.82,1.82,0,0,0-.11.28c0-.19,0-.36,0-.52,0,.16,0,.26-.12.29,0,.5,0,.89,0,1.2,0-.2,0-.39,0-.59Zm0,.56h0l0,0A.05.05,0,0,0,79.73,43ZM79.87,46l-.12-.13-.09-.1c0,.2,0,.57.07.68A1.41,1.41,0,0,0,79.87,46Zm-.06,9.71c.12-.25.24-.5.35-.75,0,.23-.18.83-.07.91-.16.4-.32.81-.5,1.21,0,.39.14,0,.32-.47a13.46,13.46,0,0,1,.49-1.28c.44-.6-.25.94,0,.55a8.26,8.26,0,0,0,.33-1.55c.16-.56.3-.84.37-.8a4.08,4.08,0,0,0-.31,1.18,2.35,2.35,0,0,1-.23,1l-.06,0c.07,0-.07.5-.27,1s-.45,1.14-.55,1.48c-.38.63-.31.34-.17-.11s.35-1.06.32-1.05c-.2.56-.41,1.11-.64,1.65.21-.75-.19-.08.11-1.06-.37,1-.56,1-.9,2,.13-.57-.06-.27-.32.18a4.58,4.58,0,0,1-.69,1.06c.26-.55.69-1.31,1-1.89s.59-1,.54-.86a4.25,4.25,0,0,1,.28-.72c.17-.39.37-.86.5-1.11Zm-.73,1.48.49-1C79.34,56.83,79.13,57.38,79.08,57.14Zm-.29.58.27-.52c-.12.38-.25.76-.38,1.14ZM71.31,70.57l1-1.4.12-.09.19-.34.36-.49c.23-.22.21-.08,0,.18.55-.73.44-.53.57-.86.54-.69.79-1,.92-1.15s.13-.07.14,0,0,.14.14,0a7.06,7.06,0,0,0,.91-1.12c-.17.36-.73,1.13-.52,1.05-.38.49-.77,1-1.17,1.45l.11.13a15.15,15.15,0,0,0,1.61-2.39,10.51,10.51,0,0,0,.77-1.8c-.5.94-.57,1-.59.86s0-.31-.34.12v0l.57-.81a1,1,0,0,0,.16-.19l-.09.09c.58-.85,1.05-1.57,1.31-2,.21-.3.43-.63.63-.94.58-.91,1-1.68,1-1.12a20,20,0,0,0,1.37-3.26c.5-1.46.94-3.13,1.27-4.51l-.09.77a6.09,6.09,0,0,0,.59-2.58,8.26,8.26,0,0,1-.06-1.75c0,.76,0,.44.18-.16s.28-1.45.37-1.75c0-.69,0-1.31,0-2s0-1.44,0-2.4a2.44,2.44,0,0,0,.42-1.68c-.06-.27-.12-.55-.19-.82,0-.62-.11-1.33-.2-2s-.17-1.25-.17-1.64l0,.16A2.33,2.33,0,0,0,82.36,35s-.07.08-.06.31c-.19-1-.38-1.85-.58-2.62,0-.17,0-.37.25.49.06.57,0,.32-.08,0s-.14-.59-.17-.5c-.06-.23-.12-.44-.17-.65s0-.42,0-.62a1.23,1.23,0,0,1,.32.41c-.11-.27-.23-.63-.37-1a20.76,20.76,0,0,0-.38-2.55c.2.06.3-.25.49-.31a7.87,7.87,0,0,0-.43-1.33,3.27,3.27,0,0,0-.65-1.21c.24.81-.26-.27-.28-.2-.23-.63-.48-1.19-.73-1.71.13.17.25.31.45.61.13,0-.05-.45-.3-1a9.66,9.66,0,0,1-.58-1.43c0,.1.09.31,0,.27-.17-.36-.35-.72-.54-1.07.49,1-.27,0-.59-.54s-.7-1.11-.58-1l.39.54c-.38-.78-1.15-1.51-1.57-2.32,0-.07.23.2.29.22-.71-.74-1.28-1.54-2.31-2.63l.72.53a22.19,22.19,0,0,1-1.83-1.91c-.7-.8-1.47-1.66-2.1-2.36.12.17.37.46.18.33-.83-.73-1.35-1.4-.89-1.15-.46-.29-1.2-1-2-1.71a12.3,12.3,0,0,0-2.4-1.72,40.92,40.92,0,0,0-5.3-2.07c-.43-.28-.92-.59-1.45-.89.85.39,1.11.47,1.22.44s0-.16.27-.1c-.07,0-.15-.06-.39-.19.06-.07.78.39.75.25a8.48,8.48,0,0,0-.89-.4c.58.19-.81-.6-1.37-.84S57,2.72,56,2.34s-2.2-.75-3.12-1c.16,0,.49.1.3,0C51.84,1,50.9.76,49.91.55A29.61,29.61,0,0,0,46.33,0l-.57.23s.05-.05.19-.08C44.6,0,44.26.15,44.18.28s.1.29-.23.29a8.46,8.46,0,0,1-1.6,0l.28-.07a3.53,3.53,0,0,0-1.08.11c-.1.05-.19.07-.93.07s-.33.08,0,.07.68,0,.3.07A3.89,3.89,0,0,0,39.53,1a7.79,7.79,0,0,1-2,.21c.11-.07-.3-.2,1.13-.35H37.23L38.38.68c.17,0,.34,0,1.19-.09.78-.23.59-.35,1.32-.53a10.3,10.3,0,0,1-1.48.25c-1.18,0,.17-.11.29-.18a6,6,0,0,1-1.62.12,4.32,4.32,0,0,0-1.49.16c.29.19,0,.21,1,.25-1,.16-2.22.2-2.16,0l-.17.21c-.24,0-1,.11-1.06.08s0,0,.22-.11l-.22.11-.31.15A12.44,12.44,0,0,0,36.44.83c-.48.18.71.2-.86.46-.68.1-.1-.09-.15-.13-1.76.34-2.65.48-3.46.59a12,12,0,0,0-2.86.68,12.11,12.11,0,0,1,1.58-.5c.67-.18,1.42-.37,2.07-.57A11.45,11.45,0,0,0,30.28,2c.66-.27.76-.36-.07-.21l-.3.2a13.14,13.14,0,0,1-1.42.4s0,0,0,0l0,0,.25-.15a2.65,2.65,0,0,0-.25.15l0,0a0,0,0,0,0,0,0c0,.05.21,0,.65-.1-.58.26-1.42.59-2.37,1s-2,.83-3,1.28c0-.14.73-.51,1.25-.76s.83-.41.05-.17a30.27,30.27,0,0,1-2.87,1.55c.54-.43-.7.22-.72.14q-.9.66-1.77,1.35A18.41,18.41,0,0,0,17,8.54a8.64,8.64,0,0,1,1-.76,11,11,0,0,1-1.71,1.34,12.67,12.67,0,0,0-1.95,1.53L15,10a17.34,17.34,0,0,0-2.66,2.59l-.1-.14c0,.14-.38.65-.83,1.2h0c-.41.43-.84.89-1.29,1.4.49-.64.9-1.15.76-1.16a10.18,10.18,0,0,0-1.5,1.91l.25-.27-.36.59c-.33.43-.73,1-1.13,1.55-.16.18-.39.46-.71.9.17-.36.74-1.13.53-1.05.38-.49.77-1,1.17-1.45L9,16a15.57,15.57,0,0,0-1.62,2.4,10.15,10.15,0,0,0-.74,1.73A10.56,10.56,0,0,0,6,21.66c-.31.4-.66.93-1,1.43-.59.91-1.05,1.67-1,1.11a20.83,20.83,0,0,0-1.36,3.27A46.63,46.63,0,0,0,1.34,32c0-.26,0-.52.08-.78a6,6,0,0,0-.58,2.59,7.74,7.74,0,0,1,.05,1.75c0-.76,0-.44-.18.15S.44,37.15.35,37.45c0,.68,0,1.31.05,2s0,1.45,0,2.4A2.53,2.53,0,0,0,0,43.52l.18.83c0,.61.12,1.32.2,2S.57,47.57.58,48l0-.17a2.57,2.57,0,0,0,.22,1.08c.07,0,.09-.22,0-.75.1.43.21.85.32,1.27l-.05.05c.21.83.47,1.62.79,2.52l0,.06c0,.2,0,.41.07.61a1.3,1.3,0,0,1-.1-.27c0-.11-.05-.19,0-.23a1.11,1.11,0,0,1,0,.23c0,.31-.3.12-.54-.31.26.62.59,1.71,1,2.81.09.52.18,1,.27,1.38L2.43,56c-.51-.83-.59-.19-.87-.09A7,7,0,0,0,2,57.28c.24.61.53,1.2.64,1.2-.33-1.13.79,1.42,0-.6,0,0,0,0,.07,0,.2.43.5,1,.86,1.62-.14,0-.47-.87-.32-.25.4.56.43.83.48.54l.07.1c1,1.7,2.29,3.85,3.41,5.63-.27-.35-.52-.72-.77-1.08.15.26.3.52.46.78l.32.32.36.57,0,0,.12.18h0v0h0l.11.17-.13-.16-.19-.25a1.81,1.81,0,0,0,.19.25l.18.23.55.88s-.05,0-.09,0-.15,0-.08.13a5.24,5.24,0,0,0,.74,1,4,4,0,0,1-1-1,13.56,13.56,0,0,1-1.07-1.48c-.24-.54-.06-.35.22,0s.66.79.82.83a4.39,4.39,0,0,0-1-1.1c-.51-.8-1.09-1.59-1.58-2.33a7,7,0,0,1-1-2A14.69,14.69,0,0,0,3.2,59.78c-.14,0,0,.46.29,1a11.3,11.3,0,0,1,.59,1.43c0-.1-.1-.3,0-.26.17.36.35.71.53,1.07-.48-1,.27,0,.6.54s.69,1.11.58,1l-.4-.54c.39.77,1.16,1.51,1.57,2.32,0,.07-.23-.2-.28-.23.71.75,1.27,1.55,2.31,2.64l-.73-.54a21.1,21.1,0,0,1,1.83,1.92c.71.79,1.47,1.65,2.11,2.35-.13-.17-.38-.45-.19-.32.83.73,1.35,1.4.89,1.14.46.3,1.21,1,2,1.72a12.63,12.63,0,0,0,2.4,1.71,38.76,38.76,0,0,0,4,1.65,10.74,10.74,0,0,0,1.6.88h-.11c-.11,0,0,.15-.27.09.07,0,.16.07.39.19-.05.07-.78-.38-.74-.25a6.07,6.07,0,0,0,.88.4c-.58-.19.82.6,1.38.84s1.65.62,2.71,1,2.19.75,3.12,1c-.17,0-.49-.1-.3,0,1.31.36,2.24.59,3.23.81a28.47,28.47,0,0,0,3.59.54l.57-.22s0,0-.19.07c1.35.13,1.68,0,1.76-.13s-.1-.28.23-.29a9.5,9.5,0,0,1,1.61,0l-.28.07a3.13,3.13,0,0,0,1.07-.11,2.83,2.83,0,0,1,.93-.07c.6-.07.34-.07,0-.07s-.69,0-.31-.06a3.78,3.78,0,0,0,1.38-.2,8.33,8.33,0,0,1,2-.21c-.11.07.3.21-1.14.35.47,0,1,0,1.42,0l-1.16.16-1.19.09c-.78.23-.59.34-1.32.53a8.22,8.22,0,0,1,1.49-.25c1.17,0-.18.11-.29.17a6.42,6.42,0,0,1,1.62-.12,4.06,4.06,0,0,0,1.49-.15c-.3-.2,0-.21-1-.25,1-.17,2.22-.2,2.16,0l.17-.21c.23,0,1-.12,1.06-.08s0,0-.22.1l.22-.1.31-.15a11.21,11.21,0,0,0-2.53.26c.48-.19-.71-.21.87-.47.68-.1.1.09.15.14,1.76-.35,2.65-.49,3.45-.59A13.27,13.27,0,0,0,54,81.49a14.57,14.57,0,0,1-1.59.49c-.66.18-1.41.37-2.07.58a11.56,11.56,0,0,0,2.49-.66c-.66.27-.76.37.07.21l.3-.2c.48-.13,1.34-.42,1.42-.4s0,0,0,0l0,0-.25.14a2,2,0,0,0,.25-.14l0,0v0s-.21,0-.66.11c.58-.26,1.42-.6,2.37-1s2-.84,3-1.28c0,.14-.73.51-1.25.76s-.84.4-.05.17a27.76,27.76,0,0,1,2.86-1.55c-.53.43.71-.22.73-.14.6-.44,1.19-.89,1.76-1.36a18.47,18.47,0,0,0,2.69-1.85,10.21,10.21,0,0,1-1,.76A10.91,10.91,0,0,1,66.8,74.8a13.4,13.4,0,0,0,1.94-1.54l-.6.64a17.81,17.81,0,0,0,2.66-2.59l.09.14c0-.13.39-.65.83-1.19s.92-1.14,1.07-1.37a18,18,0,0,1-1.31,1.51Zm-2.78,2.5.65-.54-.91.86ZM60,78a5.68,5.68,0,0,0,.62-.16l-.11.06.11-.06a7.13,7.13,0,0,0,.78-.26l0,0c-.57.31-1.16.62-2,1-.28-.06.81-.35,1.16-.64l-.89.26A4.35,4.35,0,0,0,60,78Zm9.1-9.77-.43.5c-.15.1-.3.2-.28.12C68.59,68.62,68.83,68.41,69.05,68.2Zm-5,4.26c-.74.6-1.52,1.23-2.28,1.82l-.65.38c-.14,0,.32-.35.73-.66s.79-.6.52-.49c.65-.39,1.28-.81,1.91-1.24C64.15,72.35,64.09,72.41,64,72.46Zm2.31-1.88L66,70.9c.11-.12.23-.24.35-.39S66.47,70.43,66.34,70.58Zm2-1.54h0l.16-.14Zm-22,13.35,1.31-.16c-.25,0-.61.1-.92.13Zm-15.2,0h0a11.33,11.33,0,0,0,1.82.42c.64.1,1.25.16,1.68.23-.35-.07-.68-.16-1-.25a31.39,31.39,0,0,0,5.47.17c-.56.26-1.13.5-1.71.74a5.5,5.5,0,0,0-1.18-.1c.13,0,.28-.1-.45-.19-1.45-.32-2.3-.21-3.35-.47l.33,0a28.73,28.73,0,0,0-3-.7c-.36-.24.34,0,1,.12S31.81,82.68,31.08,82.38Zm-1.4-.31.54.13-.53-.12ZM27,81.29l.56.18-.33,0C26.68,81.29,26.88,81.3,27,81.29Zm-3.57-1.67-.27,0C23.05,79.49,23.2,79.53,23.42,79.62Zm22,.47h0ZM55,77.67a10.18,10.18,0,0,1-2.09.6l1-.36-1.12.38-.59.17c.72-.3,1.76-.65,2.74-1.08.06,0,.51-.13.34,0a2.49,2.49,0,0,1-.42.17c-.09,0-.15,0,0,0h0C55,77.57,54.48,77.81,55,77.67Zm-34.6-1,.8.33c.39.19.81.38,1.25.56h0l.24.14-1.09-.33a7.91,7.91,0,0,0-.71-.36A5,5,0,0,1,20.38,76.7ZM14,73.33v0c-.54-.38-1.09-.78-1.65-1.24a7.69,7.69,0,0,0-1.08-1.26c-.47-.5-1-1.08-1.39-1.56l.47.3c.18.15.36.32.55.51h0l.53.53.22.23h0c.32.33.64.68.95,1-.25-.18.06.11.35.4s.49.48.33.42L12.53,72l.06.08c.24.21.49.41.74.61l-.11-.06A7.7,7.7,0,0,1,14,73.33Zm0-.1v0l-.08-.09Zm9.3,2.28-.06,0L23,75.34ZM29.12,78l-1-.34A3.47,3.47,0,0,1,29.12,78Zm2.4.73-2-.6a2.45,2.45,0,0,0-1-.51c.82.31,1.63.53,2.55.83l-.9-.44,1,.29L30.36,78c.93.29,1.94.56,2.84.8s1.68.44,2.18.63a21.55,21.55,0,0,1-3-.47Zm2.78.78-1.48-.41.65.13A1.93,1.93,0,0,1,34.3,79.5ZM16.76,71.16l-.14.07C16.09,70.76,16.55,71,16.76,71.16Zm.09,0-.05,0c-.94-.89-.5-.24-.86-.51a9,9,0,0,1-1.56-1.54l-.16-.22a11.64,11.64,0,0,0,1.32,1.19C15.91,70.37,16.3,70.67,16.85,71.12Zm.27-.13-.25.12a6.91,6.91,0,0,1-.53-.62C16.38,70.4,16.69,70.64,17.12,71Zm3,2.37L18.39,72c-.28-.31.06-.11.48.12a.5.5,0,0,0,.19.1l.16.09c.32.24.65.48,1,.7,0,.06-.25,0-.25.07.5.34,1,.67,1.52,1-.48-.4.45.14.58.14-.63-.38-1.25-.78-1.85-1.2,0,0-.07-.15-.46-.46a2.25,2.25,0,0,1-.53-.24l-.11-.08s0,0-.05-.14a14.68,14.68,0,0,1-1.78-1.55c.14.32-.28,0-.81-.49S15.32,68.91,15,68.67L14.35,68l-.24-.25c0-.07.07,0,.48.31-.17-.14-.51-.47-.79-.76s-.51-.52-.5-.44c-.74-.83-1.43-1.69-2.09-2.58a1.19,1.19,0,0,1-.12-.26C11,64,11,64,11,64A37.76,37.76,0,0,1,5,50.9c-.06-.3-.13-.63-.23-1,.07.33.15.66.23,1,.15.7.25,1.32.43,2-.26-.5-.18-.21-.07.18s.26.86.12.74l-.1-.3A10.41,10.41,0,0,0,5,52.23l-.21-.65c-.1-.4-.21-.83-.3-1.27,0,.1.08.23.12.38.18.57.44,1.32.46.93-.14-.4-.26-.81-.39-1.23l.09.1c-.12-.51-.24-1-.34-1.53,0,.31,0,.54-.11.53,0-.27-.11-.56-.16-.85a1.19,1.19,0,0,1,0-.46c0-.1.08-.14,0-.91S4,45.73,3.88,45l.05.18a1.63,1.63,0,0,0-.06-.34A37.32,37.32,0,0,1,3.73,41h0c0-.49.07-1,.11-1.43l-.06.06,0-.53a1.39,1.39,0,0,0,.11-.55l0-.26c0-.45.08-.89.14-1.33.07-1-.1-.29-.22-.07v-.24c0,.12,0,.21,0,.29h0c.07-.72.15-1.45.24-2.17.06-.4.13-.8.21-1.19l0,.06,0-.22V34l-.18.77.14-.32c0,.21-.08.43-.11.63a2.94,2.94,0,0,0,0,1c.06-.66.15-1.31.25-2,.13-.41,0,.63.21,0a8.57,8.57,0,0,1,.34-1.53l0,.12c.2-.57.42-1.3.65-2.05s.48-1.52.69-2.18a8.08,8.08,0,0,1-.19-1.85,31,31,0,0,1,1.56-3.17c0,.12,0,.25,0,.38A6,6,0,0,0,7.12,25l-.1.21c0,.1-.1.2-.14.3l-.09.12c-.43,1-.47,1.62-.14,1.14l.09-.35.13-.18.08.07A2.7,2.7,0,0,0,7.08,26l.11-.15a2.87,2.87,0,0,1,.44-1.33h0l-.09.29.1-.21c0,.37,0,.08.05-.09l.2-.4.45-.63a4.69,4.69,0,0,1-.7,1.37l.19,0a8.86,8.86,0,0,0-.92,2c.13-.33.27-.67.41-1l.07.05c.15-.32.3-.7.46-1.07l.19-.2-.19.2a5.45,5.45,0,0,1,.61-1.13l0,0-.06.13a7.25,7.25,0,0,1-.3.69l.3-.69,0-.09c.08-.21.14-.42.24-.67l.6-.82v0a3.14,3.14,0,0,1-.25.69l-.24.42c.11-.17.18-.31.24-.42.34-.61.57-1,.82-1.35l.71-1.06,1.06-1.37a4.57,4.57,0,0,0,.38-.47c.39-.5.81-1,1.24-1.54l.27-.24a26,26,0,0,1,2.32-2.42c.77-.72,1.58-1.43,2.63-2.32l-.07.17c.89-.6,1.52-1,2-1.39a14.09,14.09,0,0,0,1.1-.93c.31-.28.6-.56,1-.88A11.25,11.25,0,0,1,24.3,8c.1.08.48-.12.83-.3s.69-.34.68-.21c-1,.46-.78.45-.44.41a6.76,6.76,0,0,1,2.06-1.09c-.39.29.67,0-.45.47A19.67,19.67,0,0,0,30.19,5.9c1.3-.51,1.52-.48,1.74-.47a4.47,4.47,0,0,0,1.75-.31l-.37.17c.55-.13,1.1-.26,1.66-.37H34.4c.65-.18,1.31-.33,2-.47s.47-.17.19-.17L38.77,4,39,3.77a27.5,27.5,0,0,0,2.86.08l.51,0a5,5,0,0,1,2.09,0A4.6,4.6,0,0,0,43.17,4a4.25,4.25,0,0,1-.8.23h.39c.19,0-.5.06-.65.07.41-.08-.52-.07-.26-.15-.64,0-1.29.12-1.92.2l.36-.15c.53-.13,1.07-.24,1.6-.33s1.18-.2,1.77-.28l.87,0,1.28.4a3.32,3.32,0,0,0-.56,0l.72.1a11.74,11.74,0,0,0-1.78,0c-.55,0-1,.11-.95.17.34-.17,1,0,1.59.14-.44,0-1.39,0-.67.11.26-.07,2.23,0,.85-.19a9.17,9.17,0,0,1,2.05.16c-.79,0-.29.12-.52.21.71,0,.7-.15.83-.19a20.58,20.58,0,0,1,2.34.74A20.92,20.92,0,0,0,52.23,6l-.52-.14c-.34-.1-.69-.2-.57-.23a5.21,5.21,0,0,1,1.79.54,8.4,8.4,0,0,0,1.56.66l-.3-.33c.3.07.88.27,1.38.45h0c.22.07.42.15.57.21s1.43.86.37.47a9.94,9.94,0,0,0,2.2.85,8,8,0,0,1,2.4,1.09c-.54-.36-.86-.54-1.14-.71l-1-.54.3.12c.42.2.85.43,1.32.69L60.42,9c.37.22.94.56,1.45.88a9.75,9.75,0,0,0,1.16.68l-.12-.1a43.3,43.3,0,0,1,3.69,2.71l.19.25c0,.09-.36-.16-.78-.51s-1-.81-1.44-1.16c.54.53.16.31-.32,0l-.18-.1-.16-.09-1-.7c0-.06.25,0,.25-.07-.5-.34-1-.67-1.52-1,.47.4-.46-.15-.59-.15q.94.57,1.86,1.2s.07.16.45.47a2.11,2.11,0,0,1,.54.23l.11.08s0,.05,0,.14a14.57,14.57,0,0,1,1.77,1.55c-.14-.31.29,0,.82.5S67.8,15,68.12,15.25l.66.63.24.25c0,.07-.08,0-.48-.3.17.13.5.47.78.75s.52.52.51.44c.73.83,1.43,1.69,2.08,2.59a1.51,1.51,0,0,1,.13.25c.08.09.11.09.11.07a37.58,37.58,0,0,1,6,13.08c.07.31.14.63.23,1-.07-.33-.15-.66-.23-1-.14-.7-.24-1.32-.42-2,.25.51.18.21.07-.17s-.26-.87-.12-.74v0l.08.23a10,10,0,0,0,.38,1.38l.26.81c.11.42.2.82.28,1.19,0-.08-.09-.26-.16-.47-.18-.57-.43-1.32-.45-.93.13.41.26.82.38,1.23l-.09-.09c.13.51.24,1,.35,1.53,0-.33,0-.57.12-.53l.06.27h0a3,3,0,0,1,.09,1c0,.1-.08.13,0,.9s.21,1.54.28,2.32l0-.19a1.23,1.23,0,0,0,.06.35,37.21,37.21,0,0,1,.13,3.81h0c0,.49-.07,1-.1,1.42l0-.06,0,.53a1.65,1.65,0,0,0-.1.55l0,.27c0,.44-.09.88-.14,1.33-.07,1,.09.29.22.07v.24c0-.12,0-.22,0-.29s.08,0,.09.29c0-.39.11-.83.17-1.28,0,.1,0,.21.06.27-.11.52-.35,2.39-.33,1.22,0,.69-.07,1.38-.13,2.07-.08,0,0-.48,0-.69-.07.49-.16,1-.26,1.47l0-.06,0,.21v-.57c.07-.25.13-.51.18-.77l-.13.32c0-.21.07-.42.1-.63a2.75,2.75,0,0,0,0-1c-.07.65-.15,1.31-.25,2-.13.42,0-.62-.22,0a8,8,0,0,1-.33,1.53l0-.12c-.2.56-.42,1.29-.65,2s-.47,1.53-.69,2.18a7.14,7.14,0,0,1,.19,1.85,32.48,32.48,0,0,1-2.71,5.09l-.18.07c.3-.62.81-1.54,1.34-2.54l-.24.62A7.69,7.69,0,0,0,76,58.89l.1-.21c0-.1.09-.21.13-.31l.09-.11c.43-1,.48-1.62.15-1.15l-.09.35-.14.18-.08-.07-.13.37-.11.14a2.86,2.86,0,0,1-.44,1.34l.1-.3c-.31.62-.64,1.24-1,1.85a5.78,5.78,0,0,1,.88-1.89l-.19,0a9.11,9.11,0,0,0,.92-2c-.13.34-.27.67-.42,1l-.06,0a13.33,13.33,0,0,1-1.08,2.21l0,0,0-.12a6.36,6.36,0,0,1,.31-.7c-.1.23-.2.47-.31.7l0,.09a10.14,10.14,0,0,1-.37,1,9.37,9.37,0,0,1-.76,1.36h0l-.15.21v0l0,.07c-.37.49-1.27,1.68-2.48,3.17.08-.13.16-.26.22-.34-.49.47-1,.93-1.48,1.37a27.32,27.32,0,0,1-2.32,2.42c-.78.71-1.59,1.43-2.63,2.32l.07-.18c-.9.61-1.52,1-2,1.4a12.5,12.5,0,0,0-1.11.93,12.25,12.25,0,0,1-1,.88,11.83,11.83,0,0,1-1.79,1.11c-.1-.09-.48.12-.84.3s-.69.34-.67.21c1-.46.77-.45.44-.41a6.79,6.79,0,0,1-2.06,1.08c.38-.29-.67,0,.44-.47A19.51,19.51,0,0,0,52.93,78c-1.29.5-1.52.48-1.73.46a4.7,4.7,0,0,0-1.76.32l.38-.18c-.55.14-1.11.26-1.66.37l.57,0c-.65.17-1.31.33-2,.47-1.22.3.52.08.38.19l.39-.23c.82-.09,1.92-.47,2.11-.39a3.4,3.4,0,0,0-1.17.39c-.77.18-1.59.37-2.4.53.08-.13-.8-.06-1.72,0l-.25.17a25.4,25.4,0,0,0-2.87-.07l-.51,0a4.75,4.75,0,0,1-2.08,0A4.6,4.6,0,0,0,40,79.94a4,4,0,0,1,.8-.23h-.4c-.18,0,.51,0,.65-.06-.4.08.52.07.27.14.64,0,1.28-.11,1.92-.2l-.36.16c-.53.12-1.07.23-1.61.33s-1,.17-1.49.24l-2.63-.25c0-.06-.17-.14-.56-.25a5,5,0,0,0,1.33.13l-.73-.1a11.74,11.74,0,0,0,1.78,0c.55,0,1-.11,1-.18-.34.18-1,0-1.59-.14.45,0,1.39,0,.67-.11-.25.07-2.22,0-.84.19a9.86,9.86,0,0,1-2.06-.15c.8,0,.29-.12.53-.22-.71,0-.71.15-.83.2a21.31,21.31,0,0,1-2.35-.75A19.88,19.88,0,0,0,30.89,78l.53.15c.34.09.68.19.56.23a5.2,5.2,0,0,1-1.78-.55,9.27,9.27,0,0,0-1.57-.66l.31.34c-.44-.11-1.46-.47-2-.66-.11-.12-1.44-.87-.38-.47a10.28,10.28,0,0,0-2.19-.86A7.64,7.64,0,0,1,22,74.39c.55.36.86.55,1.15.71s.55.31,1,.54c-.9-.36-.36-.08-.34,0l-.14,0c-.64-.45-2.23-1.28-1-.73-.38-.22-.94-.57-1.45-.89S20.36,73.46,20.14,73.36ZM56.31,45.74h0s0,0,0,0Z"></path><path class="cls-3" d="M68.39,62.67l.35-.57c-.07.12-.68.78-.35.57M41.81,72.77l.4,0-.4,0c-.57,0-.91,0-1.29,0l-1.45-.07c1.06.14,1.33.16,1.27.28C41.36,73,41.2,72.81,41.81,72.77Zm16.29-.21-.58.51.23-.15Zm-20.59-.11a5.59,5.59,0,0,1,.66.12C38.24,72.46,37.32,72.42,37.51,72.45Zm3.59,4.12-.41,0,.41,0c.88.06,1.32.23,1.23.29.46-.09.09-.16-.19-.24s-.48-.16.31-.24c-1,0-1,0-.87.06S41.86,76.59,41.1,76.57Zm-4.8-.27,1.39,0a16.29,16.29,0,0,1-1.94-.12c-.68-.07-1.22-.13-1.17,0a7.27,7.27,0,0,0,2,.24ZM23.8,67l.1.08c.14.14-.23.07,0,.17l.49.22-.53-.39A.49.49,0,0,0,23.8,67Zm-5.59-5-.06-.15-.53-.5.07.14Zm1.09,7c.5.44,1,.61.93.47-.35-.26-.68-.53-1-.81.15.34.28.23.84.73ZM74,28.24h0c.1.26.2.52.29.79A2.87,2.87,0,0,0,74,28.24ZM8.28,37.91c.08-.4.18-.78.27-1.15,0,.18,0,.36.16,0a2.51,2.51,0,0,1-.05.31,2.13,2.13,0,0,0-.2.62A.85.85,0,0,1,8.28,37.91Zm3.55-6.26a6.06,6.06,0,0,0-.25,1.21,8,8,0,0,1-.41,1c-.05.36-.15,1.06-.17,1.54s0,.78.24.14c0-.34,0-.69-.05-1,.17-.41.05.28.06.45a4.2,4.2,0,0,0,.45-1.53c-.1.08-.32.9-.26.19S11.68,32.32,11.83,31.65ZM44.35,74.43l.45,0,0,0ZM19.54,66.49c.37.23.8.52,1.26.84-.8-.69-1.56-1.43-2.27-2.16C18.89,65.67,19.25,66.12,19.54,66.49Zm39.24,3.86h0l-.2.14ZM17.8,17c-.45.2.95-1,.15-.4C17.35,17.21,17.66,17,17.8,17ZM25,11.36l.57-.52-.23.15Zm17-4,.42,0-.42,0c-.88-.06-1.32-.22-1.23-.28-.46.08-.09.16.19.24s.48.15-.3.23c1,.06,1,0,.87,0S41.27,7.32,42,7.34Zm4.81.28c-.47,0-.93,0-1.4,0a14.65,14.65,0,0,1,2,.13c.67.07,1.22.13,1.17,0a7,7,0,0,0-2-.25Zm12.5,9.31-.11-.07c-.13-.14.24-.07,0-.17l-.48-.23.52.4Zm-7.47-7a7.25,7.25,0,0,0-1.12-.31C50.88,9.74,51.9,10.09,51.86,10Zm10.45,8.81-.69-.56.74.63ZM64.91,22l.07.14.52.51-.06-.15Zm-1.08-7c-.51-.45-1-.62-.93-.48l1,.81c-.14-.34-.27-.23-.84-.73Zm-6,53.45.79-.53c.67-.43,1.3-.84,1.52-.93l-.21.17h0a16.59,16.59,0,0,1-1.6,1ZM42,73.24l0,.05-.29,0Zm9-1.48-.09-.06a5.71,5.71,0,0,1,.6-.19c.08,0-.14.1-.26.15l.5-.18-.13.1Zm20.45-9.84a4.66,4.66,0,0,0,.47-.75C71.77,61.17,71.65,61.61,71.44,61.92ZM9,55.43l0-.16-.14-.38A2.26,2.26,0,0,0,9,55.43Zm.72,1.46h0Zm3.05,1.65h0ZM16,20.18h0l0,0c.15-.14.3-.27.43-.37l0,0ZM8,32.69H8l0,.08Zm4.54-2.89c.3-.63.62-1.25,1-1.86h0c-.24.61-.33.85-.45,1.09a15.2,15.2,0,0,0-.72,1.79C12.4,30.47,12.47,30.13,12.54,29.8Zm-.27.58.05-.09a6.61,6.61,0,0,1-.25,1s-.06,0-.08-.1.14-.42.22-.63Zm-1.64,6.75c0-.17,0-.33,0-.49.08-.37.08-.49.05-.53A18.35,18.35,0,0,1,11,34.28l0-.1.09-.2a8,8,0,0,0-.27,1.43c-.06.46-.1.92-.22,1.64Zm-3.5-1.28h.09c0,.11,0,.2,0,.3l-.11,0Zm0-.21h0v-.19A1.17,1.17,0,0,0,7.18,35.64Zm0,0h0c0-.17.07-.36.09-.52H7.16Zm2-7.33a4.38,4.38,0,0,0-.23.54c-.08-.05-.21.08-.52,1a2.72,2.72,0,0,1,.21-1.16,9.63,9.63,0,0,1,.62-1.4c.3-.4.25-.19.14.16A4,4,0,0,0,9.08,28.31Zm.65-1.09a5.92,5.92,0,0,0-.45.7,2.5,2.5,0,0,0,.13-.72c.22-.44.42-.9.62-1.35C9.91,26.3,9.81,26.76,9.73,27.22ZM8.38,30.8l-.24.43.1-.29c-.28,1.18-.69,2.31-1,3.47v0c.09-.3.18-.61.25-.92l.34,0,0,.17-.37,0a2.17,2.17,0,0,0,.1-.28l.06-.08A.94.94,0,0,1,7.92,33l-.09.34a1.3,1.3,0,0,1-.32-.06l0-.13A2,2,0,0,1,7.92,33l0-.16a0,0,0,0,1,0,0l0-.14H7.69l0-.17.18-.61.37-.57C8.33,31.15,8.36,31,8.38,30.8ZM9.45,29l-.25.43c0,.15,0,.24,0,.19l.17-.31ZM39.83,8.53v0h-.06l-.07,0ZM30.63,10a1.07,1.07,0,0,0-.28.28c.55-.19,1-.3.87-.14l.46-.16c.49-.17,1.07-.33,1.48-.47a.78.78,0,0,1,.3-.13l-.3.13-.09.06c.7-.2,1.42-.38,2.12-.54.54-.12,1.06-.22,1.55-.31l.62-.27h-.1l-.87.21c.26-.25-.77,0-1.54.17l.29-.18-.79.13h0s0,.05,0,.07a11,11,0,0,0-1.91.5c-.23.19.29.24-.8.48A4.14,4.14,0,0,0,30.63,10ZM37,7.7l-.59.14c-.69.15-1.36.27-2,.44,0-.09.88-.19.54-.24a4,4,0,0,0-1.08.4l-.19.06-.09,0c-.4.1-.62.1-.63,0a2.48,2.48,0,0,0,1-.29A1.68,1.68,0,0,1,34.64,8l0,0c0-.09.39-.19.86-.28s1-.16,1.29-.24c.55,0,.42.09.12.18h0ZM16.66,23l.12-.17.25-.12c-.08,0-.09,0-.06-.13l.57-.75a6.54,6.54,0,0,1-.87,1.35A.55.55,0,0,1,16.66,23ZM50,8.49C49.36,8.3,48.67,8.15,48,8A12.51,12.51,0,0,1,50,8.49Zm2.18.74q-.36-.15-.72-.27l1.17.31Zm4,2.34a.9.9,0,0,0-.06-.22A4.52,4.52,0,0,0,55,10.73c-.38-.1-1-.36-1.59-.55s-1.06-.32-1.12-.2c.25,0-1-.58-1.65-.62a10.47,10.47,0,0,1-1.52-.15h.1c.28.1-.4-.05-.24,0,1.21.33,2.33.64,3.41,1a12.78,12.78,0,0,1,1.59.46l.3.06-.3-.06a.43.43,0,0,0-.19,0l.41.14C54.87,11,55.53,11.29,56.19,11.57ZM39.3,8.16v.08l.48,0a.76.76,0,0,0-.38-.07Zm2.84-.36-1,0a1,1,0,0,1,.43.17C41.51,7.86,41.85,7.82,42.14,7.8Zm6.62.93c-.63-.15-1.27-.27-1.91-.38l0,0,.08,0-.08,0c-.56,0-1.32-.07-1.9-.06a5.18,5.18,0,0,0-.63,0l.44.05c.1,0-.32,0-.61,0,0,0-.05,0-.05,0a8.4,8.4,0,0,1,1.23.12l.55-.05a4.49,4.49,0,0,1,1.8.13l.18.13A3,3,0,0,0,48.76,8.73ZM33.93,11.85l1.53-.33a2.28,2.28,0,0,1-.92.27C34.05,11.9,33.93,11.89,33.93,11.85Zm-8.62,3.68h0ZM15.16,24.84l.07-.05a1.26,1.26,0,0,0-.07.25L15.09,25Zm53.38-3.37c-.41-.42-.84-.83-1.28-1.22l-.07-.14.06-.09a1.8,1.8,0,0,0,.38.28,5,5,0,0,1,.64.74A2.06,2.06,0,0,1,68.54,21.47ZM68,19.87l-.21-.25-.63-.7C67.42,19.19,67.69,19.5,68,19.87Zm.66.88c-.16-.23-.33-.46-.5-.68-.07,0-.37-.23,0,.18S68.64,20.77,68.69,20.75Zm2.5,3.42.2-.06a11.88,11.88,0,0,1-2-2.29c-.36-.4-.35-.17-.43-.2A5.06,5.06,0,0,0,70,23a2.57,2.57,0,0,1,.76.89c.44.48-.63-1.06,0-.28A3.59,3.59,0,0,0,71.19,24.17Zm-4.08-4h0l-.11.1.14.18s.11,0,.21.1A1.57,1.57,0,0,1,67.11,20.22Zm-6.4-2.7.12.09h0l.1.09c.06.06.09.09,0,0a.06.06,0,0,1,0,0h0c.74.55,1.44,1.14,2.15,1.73l.2.09c-.21-.34-.55-.38-.82-.72a7.88,7.88,0,0,1,1.85,1.65h0l.14.12a19.39,19.39,0,0,1,2,1.85c0-.18-.16-.46,0-.45-.36-.4-.73-.8-1.11-1.18h0c.44.62,0,.18-.3-.11a.41.41,0,0,1-.11-.07,26.69,26.69,0,0,1-2.43-2.33L62.28,18,61.94,18l.19-.08-.38-.33-.11,0c-.12.09-.17.18-.11.27A7.36,7.36,0,0,0,63,19.4c-.54-.32-1.37-1-2.25-1.65,0-.07-.29-.32-.13-.26Zm13.1,10.37a4.23,4.23,0,0,0-.74-1.08l.36.22a3.72,3.72,0,0,0,.44.9Zm1.65,4.6a6.88,6.88,0,0,0,.27.68c0,.24-.11,0-.21-.25m-.9-2.54-.06-.24-.15-.57c.16.32.32.61.45.91M71.71,26.8h0l-.36-.7h0l.1.18C71.53,26.47,71.62,26.64,71.71,26.8Zm.23-.08-.19.07c-.12-.18-.24-.4-.4-.69l.2,0,.22.36Zm-.63.21-.07-.1v-.09l.12.18Zm.17,6,0,0,0,0Zm-1.07-2.18a13.82,13.82,0,0,0,.75,1.64,13.17,13.17,0,0,0-.77-1.78Zm-.08-.21Zm2.88,8.62h.05l0,.25ZM71.8,32.94l-.28.08.24.32v0a6.81,6.81,0,0,0,.57.71l-.08-.28h0c-.06-.19-.11-.31-.15-.3s0,0,0,0l.17.29h0v0q-.08-.16-.15-.3C72,33.29,71.9,33.12,71.8,32.94Zm-.48,19.19h0l0,.12Zm1.51-10c0,.26,0,.51,0,.77,0,.44,0,.89-.09,1.33a9.8,9.8,0,0,1,0-1.38A3.17,3.17,0,0,1,72.83,42.16Zm-.21-3c0,.2,0,.4.07.6,0-.06,0-.08-.1-.05C72.61,39.45,72.62,39.27,72.62,39.11ZM71.56,32.5a.85.85,0,0,0-.15.28c-.09-.22-.2-.49-.28-.75s-.2-.64-.14-.71C71.23,31.85,71.41,32.21,71.56,32.5Zm.93,4.26c.1.9.11,1.82.21,2.73a.51.51,0,0,0,.21.36.15.15,0,0,1,.09-.06v.12l.2.07c0-.11,0-.18.07-.19h0c-.09-.48-.17-.5-.25-.56l-.34.06c0-.3,0-.61-.08-.91l0-.22C72.56,37.76,72.52,37.36,72.49,36.76ZM70.43,30.9a30.66,30.66,0,0,0,1.22,2.9,7.88,7.88,0,0,0,.41,1,7.4,7.4,0,0,1,.4,1.72c-.11-.22,0,.26,0,.64-.11-.72-.36-.71-.4-1.66,0-.4-.16-.21-.1.35a25.23,25.23,0,0,0-.6-2.77h0l0-.06v.07a10.05,10.05,0,0,0,.19,1.34v.48c-.06-.27-.13-.54-.2-.81,0,.23,0,.47.07.7-.19-.77-.42-1.59-.63-2.32S70.51,31.32,70.43,30.9Zm.39-1.22-.17.11c0,.06.07.07.08,0C70.87,30,70.87,29.86,70.82,29.68Zm-.62-.21,0,0,0,.09Zm4.16.87h0a15.51,15.51,0,0,0-1.71-3.77c-.29-.18-.59-.34-.89-.5h-.05a4.46,4.46,0,0,1,.39.6l.34-.12c-.14.39,0,.06.2.45s.35.64.54.95c.35.61.72,1.2,1,1.82C74.28,30,74.33,30.16,74.36,30.34Zm1.36,3.75-.06,0V34l-.07-.58C75.63,33.65,75.68,33.87,75.72,34.09Zm.38,1.5L76,35.05l-.16-.2q.14.34.24.69S76.1,35.56,76.1,35.59Zm.32,2.27c-.07-.56-.15-1.11-.23-1.66.19.37.2,1.31.32,1.59C76.47,37.77,76.44,37.76,76.42,37.86Zm.14,1.24V39l-.06-.52s.1.14.14.52C76.61,39.09,76.58,39.11,76.56,39.1Zm-.76-4.59h0l.06.23Zm.33,1c0-.15-.06-.31-.08-.46l.19.23C76.34,35.87,76.2,35.55,76.13,35.53Zm-.39,14.14,0-.07.1-.37v.13h0Zm0,0h0l0-.11Zm-.06.56Zm-.9,2.48c.07-.13.14-.27.2-.4l-.26.8C74.76,53,74.78,52.89,74.8,52.75Zm-.24.82,0-.06v0h0l0,.09Zm-.51,1.54c0-.2.09-.39.12-.56v0a6,6,0,0,1,.25-.68l.08.13A7.25,7.25,0,0,1,74.05,55.11Zm-2.42,1.8-.16.05a1.9,1.9,0,0,1,.22-.37h0A2.1,2.1,0,0,1,71.63,56.91Zm-3.7,3.33-.28,0,0,.05c-.19.35-.35.65.16.12l0,.08ZM64.5,63.68l0,0,0,0Zm3.16-3.5h0l0-.07Zm-.33.62h0l.14-.26.14-.25h0A3.37,3.37,0,0,1,67.33,60.8ZM66,61.73l-.19.19-.22.22a6,6,0,0,1-.34.56v0c.15-.23.3-.46.44-.69l.12,0C65.84,62,65.9,61.84,66,61.73Zm-2.36,2.5c-.14.17-.28.35-.41.53l-.25.32.09,0c.14-.17.27-.35.41-.53l-.09.16A2.58,2.58,0,0,0,64,64l-.07,0Zm2.85-3.46-.37.44a5.6,5.6,0,0,0-.39.66,5.52,5.52,0,0,0,.4-.66h0l0,0,0-.05.16,0,.15-.07,0-.06c-.06,0,0-.11-.05-.19l-.17.17.16-.2Zm1.9-1.23-.37,0,.23-.4.22,0-.17.18C68.63,59,68.58,59.15,68.36,59.54Zm-2.6,2.64c-.14.17-.27.33-.42.49l.55,0-.36.44c-.23,0-.41-.15-.19-.41s.29-.35.42-.53C65.76,62.16,65.75,62.17,65.76,62.18Zm.9-1.37c-.16.28-.33.56-.51.83h0c.18-.27.36-.54.52-.83Zm1.57-1.05a3.47,3.47,0,0,0-.36.08,2.12,2.12,0,0,1-.16.35,1,1,0,0,1,.24,0C68.05,60.05,68.15,59.9,68.23,59.76Zm-.5-.28a31.06,31.06,0,0,1-1.84,3l0,0,0,0c-.3.43-.61.85-.94,1.27a2.8,2.8,0,0,0,.28-.27l.05-.07-.22.06c.1-.14.16-.25,0-.08l-.05.1-.4.11-.29.28h0c-.29.33-.6.64-.91,1,.13-.18.27-.37.42-.55s.17-.21.25-.3a1.88,1.88,0,0,0,.33,0,3.41,3.41,0,0,1,.39-.37v.05c.18-.32.37-.65.58-1l.39-.53s0,0,0,0l.14-.18a4.1,4.1,0,0,0,.53-.15,5.39,5.39,0,0,0,.48-.73,1.8,1.8,0,0,0-.76.4.52.52,0,0,1,.07-.16h0v0l.19-.26a5.43,5.43,0,0,0,.61-.18v0c.1-.17.19-.35.3-.53l-.43.08,0,0a1.3,1.3,0,0,1,.49-.17c0-.1.12-.2.18-.31a2.34,2.34,0,0,0-.48.22,4.11,4.11,0,0,1,.39-.44l.08-.08.23,0c.08-.12.17-.25.28-.39a1.61,1.61,0,0,0-.33.12A.77.77,0,0,1,67.73,59.48Zm.3-.55-.19.34a2.51,2.51,0,0,0,.13-.39Zm1.77-3.41.1,0H70l.21-.42-.23,0C69.92,55.23,69.87,55.35,69.8,55.52Zm2.11,1.09,0-.07,0,.08Zm-4.78,7.61.15-.15c.35-.35.7-.68,1-1,.1-.16.25-.41.4-.68s.3-.55.42-.79l-.13,0-.6.69a6.6,6.6,0,0,0,.54-.7.36.36,0,0,1-.17-.11c-.18.25-.37.56-.6,1s-.33.55-.5.82h0l-.49.48c-.18.16-.35.31-.49.42l0,0a7.34,7.34,0,0,0,1-1,.33.33,0,0,1,0,.1h0l.44-.46c-.07.19-.15.38-.23.57l-.34.2Zm-3.22,4H64l.16-.23ZM71.43,57.3h0v0h0Zm1.06-.13-.19,0-.13.25h.19Zm.58-.07-.39,0,.06-.16v0l.08-.22.27.14,0-.09a.18.18,0,0,1,0,.07Zm-4,4,.25,0,.23-.35.06-.15-.2.19-.08.08a.25.25,0,0,0,0,.08s0,0,0,0Zm4.64-8-.12,0-.18.5.19,0,0-.07C73.61,53.37,73.64,53.23,73.66,53.1Zm.9.49,0-.06,0,.12Zm-1.18,2,.12-.22,0-.08,0,.05c.14-.25.27-.49.41-.72s0-.26,0-.27c-.13.24-.25.48-.36.73S73.43,55.41,73.38,55.56Zm-.58.55a2.52,2.52,0,0,0,.29-.16l.08-.17-.2,0h0a.18.18,0,0,1,.08.23l-.33.66h-.18l.14-.26.27-.28-.21,0Zm-.79.23a1.1,1.1,0,0,0,.26-.06.64.64,0,0,1-.1.14c.12-.26.24-.52.38-.77v.13h-.07l-.06.13h.07a2.69,2.69,0,0,1-.18.35l-.26,0c0-.06,0,0,0,0a.53.53,0,0,1,.12-.1l-.11.26Zm3.47-6,.11-.08.12-.1,0-.26h0v0l0,.08V49.9h-.09Zm-3.26-3.69,0,.16-.16.61C72.13,47.21,72.17,46.94,72.22,46.64ZM56.58,72l.6-.28a5.38,5.38,0,0,1-.66.38Zm-1.18.56c.38-.19.76-.36,1.14-.54l-1,.49Zm4.61-3h0c-.51.28-.64.41-.66.49ZM49.87,74.43a3.47,3.47,0,0,1-.46.13Zm-3.95,1.88A21.48,21.48,0,0,0,48.31,76a4.06,4.06,0,0,1-.73.18c-.47.09-1,.17-1.3.25S45.87,76.36,45.92,76.31Zm5.52-2.17a1.93,1.93,0,0,0-.42,0l-.79.25.22.37.29-.13C51,74.41,50.49,74.35,51.44,74.14ZM46,76.08l.4,0,.39,0,.39-.08s-.06,0-.18.06c.49,0,1-.06,1.44-.11h0l.42,0a1.05,1.05,0,0,0,.4-.19,2.68,2.68,0,0,1,1-.29c0-.09-.27-.08-.74,0a5.83,5.83,0,0,1-1.25.46c-.4-.06,1-.19.38-.3a7.31,7.31,0,0,0-1.13.2c-.4.07-.72.11-.52,0l-.71.08C46,75.94,46.08,76,46,76.08Zm-5.91,0a1.24,1.24,0,0,0,.45.09h0l0,0A1.68,1.68,0,0,0,40.08,76.09Zm17.31-4.2.35-.18.11-.07.31-.2-.31.2,0,0a4,4,0,0,0,.93-.68c-.08.16-.19.35-.74.65q.38-.31.75-.66l0,0-.5-.09.38-.17.34-.15a.41.41,0,0,1-.07.23l0,0-.08.09c-.48.26-1,.5-1.48.73s-.82.49-.63.55c.33-.15.5-.2.69-.28Zm-2.16,1,.48-.15h0l.71-.47a.9.9,0,0,0-.36.12,3,3,0,0,1-.57.36l.12,0c-.29.15-.72.35-1.2.55a1.16,1.16,0,0,1-.41-.09,1.83,1.83,0,0,1,.88-.21Zm3.84-4.94-.19.09.06,0a6.28,6.28,0,0,1,.51-.42l-.2.22Zm.89-.2-.16,0,.42-.33.44-.31a1.08,1.08,0,0,1,.31-.16c.65-.51,1.28-1,1.89-1.57l-.06-.08-.16.13a15.36,15.36,0,0,1-2,1.71l.07,0a1.21,1.21,0,0,0,.28-.14ZM38.18,73.23l-.06,0h.11Zm.36-.12h.1Zm5-.14L43,73A3.24,3.24,0,0,1,43.49,73Zm3.89.15a15.43,15.43,0,0,1,1.87-.56c-.31.11-.59.21-.8.31.84-.11.65,0,.28.12s-.95.29-.87.34c-.3,0-.52,0-.5-.15A.14.14,0,0,1,47.38,73.12Zm-15.13-.57-.07,0-.14,0A.74.74,0,0,0,32.25,72.55Zm5.58.69-.63-.16A1.51,1.51,0,0,0,37.83,73.24ZM27.19,69.47l-.38,0h0C26.78,69.34,27,69.39,27.19,69.47ZM32,71.36l-.11,0-.26-.09.25,0C32,71.33,32.05,71.35,32,71.36ZM36.85,73l-.15,0-.19,0,.2,0Zm1,.27-.72-.2,0,0,.78.19Zm2.18.59-1.42-.38,0,0a13.13,13.13,0,0,0,1.55.21l-.36.17Zm1,2.34h0Zm-5.25-.4.5.06a2,2,0,0,0-.32-.07Zm-3-1.21.37-.18.46.13a.38.38,0,0,1-.08.13C33.22,74.6,33,74.57,32.74,74.56Zm-1.86-.82-.47.2c-.2,0-.44-.12-.7-.21h0l.24-.11.18-.06a4.14,4.14,0,0,0,.63.15Zm3.08.93.06,0,.13,0C34.23,74.7,34.08,74.68,34,74.67Zm0,0Zm-4.87-1.54-.08,0,.17,0a2.8,2.8,0,0,1,.41.13l-.43.15-.4-.14L29,73.2l.18,0h.2Zm8.31,2.44.08,0,.19,0Zm-4.7-1.33-.51.24a5,5,0,0,1-.63-.19l.11-.06.25-.11.51.11a3.28,3.28,0,0,0-.4-.15l.05,0Zm1.71.93c.23,0,.46.09.7.12.66.1,1.32.17,2,.27h.06l-2.84-.37Zm-1-.22.16,0-.08,0-.39.26c-.63-.16-1.26-.32-1.87-.51l.37,0-.22.1-.11,0c-.08,0-.11-.08-.11-.13h0a23.09,23.09,0,0,0,4,1c-.13-.12.22-.09.57-.06h.07c-1.38-.27-2.79-.37-4.17-.68l.18.05.32-.16-.38,0c.73.15,1.47.27,2.22.37l0,0a3.93,3.93,0,0,1-.48.06c-.31,0-.63,0-.94,0l-.26-.08A3.65,3.65,0,0,0,33,75Zm-2.12-3.7-.29-.2-.28-.1c-.37-.14-.78-.3-1.39-.5l-.26-.08a1,1,0,0,0,.26.08,3.58,3.58,0,0,1,.5.12c-.47-.21-.93-.44-1.38-.68l-.27-.09a.9.9,0,0,1-.27-.08l-1-.26a11.5,11.5,0,0,0,1.38.71,21.78,21.78,0,0,1,2.89,1.06h-.08l-1.35-.53-.16.08-.29-.13a1.12,1.12,0,0,1,.45,0l1.78.61.07,0Zm-.62.79h0l.1,0h0l-.28,0Zm1.65.49-.09.07c.28.1.56.22.86.34,0-.18,0-.28.38-.18-.16-.06-.29-.09-.42-.13A3,3,0,0,0,32.31,72.55Zm4.57.57c-.71-.17-1.43-.33-2.14-.46h0q-1-.19-2.13-.3l-.16.11.6.18.42.13a28.45,28.45,0,0,1,3.24,1l.23,0,.45-.25h.28a.56.56,0,0,0-.13.18l-.21,0-.86-.26h0l-.86-.29c-.32,0-.53-.09-.5-.17a17.67,17.67,0,0,0-3.9-1l-.23-.09c.22-.1.51-.27.53-.43h.13l.65.13h0l-.44-.1a33.34,33.34,0,0,0,4,1.5,6.33,6.33,0,0,0,1.1.1L36.39,73l.55.16Zm1-.05-1.64-.25,0,0a19.12,19.12,0,0,0-3.44-.72l-.49.32-.21-.06.41,0a13.71,13.71,0,0,1,2.13.18l0,0c-1.18-.2-2.37-.39-3.55-.53l.67.24a3.6,3.6,0,0,1,1-.15,8.46,8.46,0,0,1,1.21.1l.21.06-.07,0,.84.16a6.52,6.52,0,0,1,1.08.36L34,72.1s0,0,0-.06l.18.07h0l1.86.7.37.05.32.08h-.35L36,72.82l.36.05c-.43-.1-.86-.19-1.3-.27l0,0,1.25.2,0,0,.17,0,.19,0-.44-.13c0-.05,0-.08.18-.1h0l.52.1c0,.09.32.16.7.21l.4,0,.14,0Zm1,.12-.85-.1h.14l.37.11-.29,0,.19-.06.22,0ZM51.8,71.41h-.17s-.05.07.06,0Zm.15,0h0Zm.44,0-.25,0-.53.17-.38.27.16-.07,0,0Zm.2,0h-.16c-.16.1-.41.23-.4.31ZM39,73.27l-.6.39-.45,0a.14.14,0,0,0,0-.15h.42l.31.09.21,0c0,.11.36.15.77.19l.26-.12c-.43-.07-.86-.16-1.28-.25a.56.56,0,0,1,.23-.13c.35.12.7.24,1,.38.13,0,.19.11.2.18l.2,0c.09-.06.12-.13.09-.2h0c-.35-.16-.72-.31-1.09-.44l.32,0,.22.08-.54,0A1.68,1.68,0,0,0,39,73.27Zm1.21-.18L39.43,73l-.17.12A2.87,2.87,0,0,0,40.24,73.09Zm.45,0-.43,0,0,0Zm9-1-.27.09c-.33.12-.66.22-1,.31,0,0,0,0-.08.07A17.08,17.08,0,0,1,50,72.14c-.39.12-.85.31-1.24.42h.14l.59-.08,1-.35L50.7,72l0,0,.49-.2a.37.37,0,0,1-.23-.09l-.86.23-.07,0,0,0-.15,0-.22.06ZM58,68.44h0Zm-30.8,4.29a1.62,1.62,0,0,0,.35-.12l.33.13a.55.55,0,0,0-.22.25C27.5,72.89,27.35,72.81,27.23,72.73ZM18.65,62.8l-1-1,.15.07A10,10,0,0,0,18.65,62.8Zm10.27,8.62a.42.42,0,0,0-.11-.26l.64-.31-.62-.12a3.76,3.76,0,0,0-.4.13l.07,0c.41.11.83.19,1.25.26l.47.08a3.5,3.5,0,0,0,.75.26l-.5.18-.9-.24-.26-.08.26.08a8,8,0,0,1,.77.29l-.33.12-.74-.3Zm-8.21-3.86.56.46A4.53,4.53,0,0,0,20.71,67.56Zm-1-.84.37.31c.17.11.43.33.49.28a5.27,5.27,0,0,0-1-.77Zm-13-20.4H6.67v.09c.08.19.15.38.22.57ZM12.47,52c-.22-.72-.42-1.45-.6-2.18l.44,1.61Zm3.32,7.74c-.22-.57-.47-1.12-.72-1.67l.56.55.29.17c-.33-.41-.66-.82-1-1.25.17.14-.23-.5,0-.26-.08-.1-.38-.57-.34-.42l.16.28-.28-.26-.23-.48c.09.09.15.13.18.11-.31-.14-.39-.74-.57-1.18.19.31.65.94.4.41-.18-.14-1-1.55-.54-.49h0c-.18-.4-.36-.8-.52-1.2.06,0,.07-.12.19-.05a1.13,1.13,0,0,0-.38-.39c-.15-.39-.29-.79-.43-1.18s-.09-.59-.14-.88a12.77,12.77,0,0,0-.52-2.08,3.28,3.28,0,0,0,.12.43c.07.28.14.56.06.5A3.46,3.46,0,0,1,11.75,49a4.83,4.83,0,0,0-.16-1.38l-.16.36c0-.07,0-.15-.07-.24v0l-.19-.81v0h0c0-.2-.08-.39-.1-.53s.06-1.37.24-.47a6.12,6.12,0,0,0-.36-1.89,5.16,5.16,0,0,1-.29-2.14,12.29,12.29,0,0,0,0,2c-.14-.7-.12-.38-.19-.25l0-.21c0-.37.06-.74.08-1.12l.05.25c0-.36,0-.9,0-1.39,0-.34,0-.65,0-.87h0c0-.71,0-1.42,0-2.14q0-.47,0-.93l0-.11a3.86,3.86,0,0,1,.31-.89c.2,0-.13,1.3-.21,2.26.15-.59.18-.23.21.22a.76.76,0,0,0,0,.17V39c0,.33-.06.66-.08,1-.06,0-.13-.18-.19-.15,0,.49-.05,1-.05,1.48.1-.5.11.38.18.47q0-.9.06-1.8c.06,0,.11-.11.17-.51A1.61,1.61,0,0,1,11,39v-.11s0,0,.1-.09a10.44,10.44,0,0,1,.36-1.89c-.19.22-.14-.21,0-.78s.32-1.28.35-1.6.11-.49.16-.73l.08-.27c.05-.05.07,0,0,.47,0-.36.39-1.49.26-1.42.28-.86.59-1.71.94-2.54a.72.72,0,0,1,.14-.19c0-.1,0-.12,0-.11A30.56,30.56,0,0,1,20,20c.19-.18.39-.36.6-.58L20,20c-.43.39-.84.7-1.27,1.13.23-.41.05-.23-.17,0s-.5.55-.49.38l.06-.09A7.14,7.14,0,0,0,19,20.5l.43-.5.36-.26c-.28.34-.56.71-.3.59s.45-.53.69-.79l0,.11.72-.7c.75-.56,1.45-1.18,2.19-1.75l0,0,0,0,0,0h0l0,0h0l0,0,0,0,0,0h0l0,0,0,0h0l0,0h0l0,0,0,0h0l0,0h0l0,0h0l0,0h.05l0,0h.05l-.1.12a1,1,0,0,0,.21-.2A29.82,29.82,0,0,1,26.41,15h0l1.05-.51-.07,0,.38-.2a1,1,0,0,0,.44-.15l.16-.15,1-.46c.7-.36.15-.21-.06-.23l.16-.12-.22.11s0,0,0,0c.57-.23,1.15-.43,1.73-.61l-.25.11c-.4.17-.73.34-.74.43.48-.23,1-.46,1.47-.67s-.42.3.08.22a6.19,6.19,0,0,1,1.22-.42l-.07.1c1-.17,2.42-.58,3.52-.83l.1-.15.53-.08c.33-.05.66-.07,1-.09l-.12,0,.42-.07.45,0v0l.4-.05A14.22,14.22,0,0,0,40.4,11h.06a3.23,3.23,0,0,1-.61.1l.61-.1.08,0,.33-.08.84.12a2,2,0,0,1-.39.08h-.4a2.49,2.49,0,0,0,.4,0h1a26.45,26.45,0,0,0,2.81.27c.23.05.68.07.54,0l-.29,0h.57l.32,0,1.19.4a20.59,20.59,0,0,1,2.66.61l0,0c1.22.48,2.39,1.06,3.63,1.47l.36.12.33.13a7.2,7.2,0,0,0,1.13.34l0,0a8.13,8.13,0,0,1,1.88.9,1.17,1.17,0,0,0,.68.19c0,.13.3.29.55.44a2.26,2.26,0,0,1,.42.31.14.14,0,0,0,0,.09h0c-.75-.53-.64-.34-.49-.1a4.45,4.45,0,0,1,1.64,1c-.37-.13.28.5-.55-.06a11.31,11.31,0,0,0,2.33,1.64c.91.68,1,.87,1,1s.13.35.94,1.12l-.3-.17c.33.32.65.66,1,1l-.21-.43c.41.38.8.77,1.19,1.17.74.71-.14-.42,0-.38l-.36-.15c-.4-.55-1.15-1.14-1.16-1.33a3.16,3.16,0,0,0,.67.58,1.3,1.3,0,0,1,.36.21l.18.16-.25-.35a6.52,6.52,0,0,0-.8-.86l.12.31c.25.24.51.49.75.74l.21.21a12.09,12.09,0,0,0,1.15,1.61l.1.11.4.59.24.08,0,0a14.8,14.8,0,0,0,1.11,2l.22.33,0-.06-.26-.27c-.32-.33-.64-.64-1-.95l-.28-.17c.33.4.65.82,1,1.24-.18-.14.22.51,0,.27.07.09.37.57.33.41l-.16-.27c.11.1.19.18.26.23a.57.57,0,0,0,.1.25l.16.26c-.09-.09-.16-.13-.18-.11.3.14.39.73.56,1.17-.19-.31-.64-.94-.39-.4.17.14,1,1.55.54.48a6.61,6.61,0,0,1,.77,1.5c-.34-.56-.24-.14-.43-.25.33.48.45.41.55.47l0,.16,0,.07,0,.06h0c.16.66.23,1.17.31,1.7a11.89,11.89,0,0,0,.53,2.07,4.19,4.19,0,0,0-.12-.43c-.08-.27-.15-.56-.06-.49A3.4,3.4,0,0,1,71.37,35a5.67,5.67,0,0,0,.16,1.38l.16-.37a16.85,16.85,0,0,1,.37,1.65c0,.12,0,1.37-.23.46a5.84,5.84,0,0,0,.36,1.9,5.49,5.49,0,0,1,.29,2.14,13.49,13.49,0,0,0,0-2c.18.9.11.14.27.23-.1.55,0,2.29-.16,1.1,0,.36,0,.9,0,1.39a7,7,0,0,0,0,1.11l.11-.63c0,.45,0,.9,0,1.3a1.68,1.68,0,0,0-.29.24,1.07,1.07,0,0,0-.21.37s0-.06,0-.09V45c0-.33.06-.65.08-1,.07,0,.13.18.2.15,0-.5,0-1,0-1.49-.1.51-.12-.38-.19-.46q0,.9-.06,1.8s-.1.11-.16.51a1.61,1.61,0,0,1,.08.47v.12s0,0-.09.09a10.69,10.69,0,0,1-.37,1.89c.2-.23.15.21,0,.78s-.32,1.27-.35,1.6-.1.48-.16.73l-.07.27c-.05,0-.07,0,0-.47,0,.36-.39,1.49-.27,1.41q-.4,1.29-.93,2.55c-.05.07,0,.4,0,.45s-.11-.15-.09-.15A28.85,28.85,0,0,1,66.71,60a34.42,34.42,0,0,1-3.57,3.88,7.77,7.77,0,0,0-.6.57l.6-.57c.43-.4.83-.71,1.27-1.13-.23.4-.06.23.17,0A4.51,4.51,0,0,1,65,62.4l-.53.64c-.1.11-.21.24-.31.37l-.69.81-.35.36-.1.11c-.16.08,0-.11.22-.36s.73-.88.42-.75-.45.54-.68.8v-.11c-.3.3-.61.59-.92.88.27-.09.42-.22.46-.09-.65.56-.78.61-.87.63s-.15,0-.68.32-1,.79-1.51,1.17l.11-.12a.8.8,0,0,0-.21.2c-.84.6-1.71,1.17-2.61,1.69h0l-1,.52.07,0-.39.2a1,1,0,0,0-.43.15l-.17.16c-.33.15-.65.31-1,.45a1.7,1.7,0,0,0-.33.2q-.88.39-1.8.75c.09-.08.3-.21,0-.16-.14.07-.3.13-.48.2a17,17,0,0,0-3.71.83l-.47.11,0,0c-.6.19-1.21.38-1.82.53h0l.18,0,.29-.1c.22,0,.24.11.1.19l.7-.1.28-.23-.25,0q-.65.08-1.29.12v0l-.3.06h0l-.15,0,0,0-.88,0-.08-.12a6,6,0,0,0,1.79-.2l-.88.14V72.7a9.15,9.15,0,0,1-2,.18h0l.11,0a4.42,4.42,0,0,1,.61-.09l-.61.09-.07,0-.48.12c-.89,0-1.77,0-2.68,0a4.3,4.3,0,0,0-.61,0h-.06c-.54-.17-1.08-.32-1.63-.45s-1-.3-1.41-.47a18.73,18.73,0,0,1-2.66-.61c-.83-.24-1.67-.51-2.73-.86l.16-.05c-.79-.39-1.35-.65-1.8-.82a8.11,8.11,0,0,0-1.13-.35,7.2,7.2,0,0,1-2-.72L24,67.48h0c.75.54.65.35.5.11s-.52-.2-.82-.36l-.72-.59c.11,0-.26-.43.44.05A11.43,11.43,0,0,0,21.08,65c-.33-.29-.67-.59-1-.9A.53.53,0,0,1,20,64c-.06-.18-.13-.34-.94-1.12l.29.18c-.33-.33-.65-.66-1-1l.21.43c-.4-.38-.8-.77-1.18-1.17-.53-.51-.23-.07-.08.21l-.72-.76c-.14-.23-.36-.56-.59-.9ZM8,52.1c.17.51.36,1,.56,1.52l.18.72A8.37,8.37,0,0,1,8.09,53l.11.25a17.53,17.53,0,0,0-.8-2.47c0-.37.2.23.35.74A3.1,3.1,0,0,0,8,52.1ZM6.88,48.56l0,.06h0Zm0-.28L7,48.7l0-.05-.06-.19C6.85,48.33,6.85,48.28,6.87,48.28Zm-.24-2.15v0Zm.6-.82h0Zm.06,0h0v0ZM7,47.55c.1.66.25,1.31.37,2a.63.63,0,0,0,.22.39v0a.88.88,0,0,1-.22-.1l-.08-.46.15,0,0,.23-.11,0c-.05-.39-.1-.78-.17-1.17l-.17-.68-.13,0a2.31,2.31,0,0,1-.15-.58L6.9,47Zm.65,2.62v0h0l0,.14a.57.57,0,0,1,0-.14v0ZM6.57,44.82l.13.55H6.6s-.08-.16-.11-.5C6.52,44.81,6.55,44.8,6.57,44.82ZM6,40.18a18.41,18.41,0,0,0,.46,4.26s-.08,0-.1-.11,0,.13,0,.36c-.09,0-.06-.73-.16-.65a4.18,4.18,0,0,0,.1.82c-.13-.5-.12.85,0,1.36s.28,1.45.46,2.39.4,1.91.63,2.68c0-.13-.14-.4-.14-.22.3,1.11.54,1.89.81,2.69a22.18,22.18,0,0,0,1.15,2.83l.47.29s-.07,0-.16-.09c.49,1,.75,1.2.91,1.19a.77.77,0,0,0,.16-.07A29.19,29.19,0,0,0,12.49,61c-.34-.23-.42-.14-.81-.5.33.43.41.26.85.94.51.84-.17-.07-.28-.12A4.07,4.07,0,0,1,13,62.41a3,3,0,0,0,.76,1c.05-.33.17-.14-.2-.9.54.62,1.08,1.53.87,1.6h.25c.09.18.51.68.5.74l.26.15a7.65,7.65,0,0,0-1.25-1.73c.06.05.1.05.13,0,.53.61,1.08,1.2,1.66,1.76.34.4.58.71.8,1a9.15,9.15,0,0,0,1.7,1.78c-.5-.32-1.48-1.41-2.35-2.15a8.09,8.09,0,0,0,1.54,1.5c-.49-.34-.61-.37-.15.18l.29.11a9.65,9.65,0,0,1,.89.86s0,0,0,0h0a1,1,0,0,1-.22-.11,1.07,1.07,0,0,0,.22.11h.05s-.08-.16-.34-.45c.44.3,1.05.75,1.75,1.26l2.21,1.63c-.12.07-.69-.28-1.1-.54s-.66-.42-.16.06a11,11,0,0,0,1,.54,8.21,8.21,0,0,1,1.33.83c-.55-.18.45.44.39.5.59.23,1.17.45,1.76.64A14.5,14.5,0,0,0,28.09,74a6.82,6.82,0,0,1-1-.42,6.94,6.94,0,0,1,1.7.64,9.47,9.47,0,0,0,1.93.76L30,74.83a13.14,13.14,0,0,0,3,.78l-.07.16a2.93,2.93,0,0,1,1.23,0c.59.08,1.21.16,1.44.16a10.71,10.71,0,0,1-2.34-.48,16.72,16.72,0,0,0,4.71.59.39.39,0,0,1,.14,0c.15,0,.11.07.06.11s-.09.09.05.14a4.93,4.93,0,0,0,1.19.2c-.33,0-1.13,0-1,.11-.52-.07-1-.14-1.55-.23l0,.17a11.77,11.77,0,0,0,2.42.11,7.11,7.11,0,0,0,1.62-.3c-.88.07-.93,0-.87-.06s.23-.18-.23-.24l.11,0a23.41,23.41,0,0,0,4.58.3c.48,0,.74.11.46.29a15.27,15.27,0,0,0,2.93-.43c1.26-.27,2.65-.68,3.78-1l-.58.29a4.08,4.08,0,0,0,2.1-.69A5.36,5.36,0,0,1,54.38,74c-.56.3-.28.24.2.09s1.17-.41,1.43-.46c1-.61,1.7-1.22,3.08-2a1.82,1.82,0,0,0,1.44-.34l.5-.52c.86-.55,1.86-1.49,2.44-1.82l-.1.1c.94-.66.8-.9.1-.35l.12-.12a1.61,1.61,0,0,0,.3-.21l1.15-1c-.15.14-.21.22.13,0a1.86,1.86,0,0,0,.36-.41c.23-.22.47-.43.71-.64a1.09,1.09,0,0,1-.13.4A13,13,0,0,1,67,65.54c.55-.52,1.1-1.06,1.62-1.61l-.12.19c-.34.76.19.58.44.79a6,6,0,0,0,.78-.88c.34-.45.63-.91.57-1-.7.71.65-1.2-.48.23-.19,0,.19-.72.72-1.39.06.13-.41.73,0,.37.21-.55.4-.67.14-.61l.15-.31a18.53,18.53,0,0,0,2.06-3.58.15.15,0,0,0,0-.16l-.05.08,0,0a20.22,20.22,0,0,1-1.66,2.61l.08-.21c.08-.16.14-.3.18-.4a1.57,1.57,0,0,0,.32-.31c.5-.68.78-1.51,1.29-2.18l-.19.45a.5.5,0,0,0-.33-.13l.11-.26,0,.14a15.68,15.68,0,0,1-.84,2,4.57,4.57,0,0,0-.71.2l.13-.23a4.84,4.84,0,0,1-.7,1.4,13.67,13.67,0,0,1-.88,1.1l.17-.25a2.45,2.45,0,0,0,.91-.7A4.47,4.47,0,0,0,71,60.4a4.42,4.42,0,0,0,.23-.4,3.6,3.6,0,0,1,.16-.39,2.38,2.38,0,0,1-.59.25c-.16.27-.33.55-.5.81a7,7,0,0,1,.69-.24c-.07.12-.15.24-.24.37a3.16,3.16,0,0,1-.65.18l.13-.19a3.65,3.65,0,0,1,.52-.11,17.37,17.37,0,0,0,.79-2.12l.35-.67.22,0c-.19.4-.29.68-.17.74l.38-.77.51-.09a15.81,15.81,0,0,0-1.45,2.61c-.1,0-.19,0-.29.06l-.08.28a.94.94,0,0,0,.37-.34,16.34,16.34,0,0,0,1.66-3.15l.12-.2h0a8,8,0,0,0,.84-1.8h0l0,0c.07.12.17.24.57-1a2.83,2.83,0,0,1-.21,1.15,9.77,9.77,0,0,1-.62,1.41c-.3.39-.25.18-.14-.16a2.64,2.64,0,0,0,.21-1,3,3,0,0,0-.32,1.24c-.35.71-.66,1.48-1,2.15a4.85,4.85,0,0,1-1,1.57,8.48,8.48,0,0,0-.71,1.62c.06.12.33-.22.62-.63a6.17,6.17,0,0,1,.81-1c-.07.06-.19.19-.19.13l.55-.84c-.55.78-.14-.24.09-.69s.49-1,.51-.87l-.21.52c.4-.6.56-1.5,1-2.14.07,0,0,.26,0,.32.2-.85.53-1.61.85-2.83,0,.25,0,.51,0,.77a14.16,14.16,0,0,1,.57-2.17l.82-2.53c-.08.16-.19.46-.19.27.16-.92.45-1.58.49-1.13a10.68,10.68,0,0,1,.15-2.05,8.67,8.67,0,0,0,.2-2.48l-.19-1.37a32.41,32.41,0,0,0-.08-4.06c.06,0,.12,0,.16.13,0-.05,0-.14,0-.37.09,0,.06.73.16.65a4.85,4.85,0,0,0-.1-.81c.13.5.12-.85,0-1.36s-.28-1.46-.46-2.39-.41-1.91-.64-2.68c.05.13.15.39.14.21-.3-1.1-.53-1.88-.8-2.69a22.46,22.46,0,0,0-1.16-2.83L73.43,27s.06,0,.16.1c-.49-1-.76-1.21-.91-1.19s-.22.22-.37,0a6.19,6.19,0,0,1-.68-1.17l.19.17c-.19-.28-.31-.45-.39-.55a.2.2,0,0,0,0-.18A8,8,0,0,0,71,23.15a1.59,1.59,0,0,1,.42.3c-.24-.31-.35-.31-.55-.53a8.53,8.53,0,0,0-.46-.76c.09.08.37.43.44.46a4,4,0,0,1-.79-1.12,2.94,2.94,0,0,0-.75-1c0,.11,0,.16-.06.22-.2-.22-.4-.43-.61-.64s-.07-.26,0-.28h-.26c-.08-.18-.51-.68-.5-.75s0,0,.18.11L67.91,19l-.25-.14c.09.17.18.32.28.48a12.93,12.93,0,0,0-1.14-.94c-.19-.23-.34-.43-.49-.62A8.83,8.83,0,0,0,64.61,16c.51.33,1.48,1.41,2.36,2.16a8.51,8.51,0,0,0-1.55-1.51c.49.35.61.37.16-.17l-.29-.12a8.71,8.71,0,0,1-.89-.85s0,0,0,0h0a.84.84,0,0,1,.22.11,1.45,1.45,0,0,0-.22-.11h0c-.05,0,.08.16.34.44-.45-.29-1.06-.75-1.75-1.26l-2.22-1.63c.13-.06.7.28,1.11.54s.65.42.16-.06c-.33-.2-.66-.34-1-.53a8.1,8.1,0,0,1-1.33-.84c.56.18-.44-.44-.39-.5-.58-.23-1.17-.44-1.76-.64A13.12,13.12,0,0,0,55,9.93a5.58,5.58,0,0,1,1,.42,7.19,7.19,0,0,1-1.71-.65A9.48,9.48,0,0,0,52.39,9l.73.14a13.08,13.08,0,0,0-3-.78l.07-.16a3,3,0,0,1-1.22,0L47.7,8c-.9-.16-1.81-.27-2.72-.34,0,0,0,0-.09-.07a5.56,5.56,0,0,0-1.19-.2c.33,0,1.13,0,1-.1.52.06,1,.14,1.54.22l.06-.17a11.74,11.74,0,0,0-2.43-.1,7.66,7.66,0,0,0-1.61.29c.8-.06.91,0,.88,0-.93,0-1.87,0-2.79.09a4.65,4.65,0,0,0-2-.16c-.23,0-.31-.12-.1-.24a15.13,15.13,0,0,0-2.94.42c-1.26.28-2.64.69-3.78,1l.59-.3A4.23,4.23,0,0,0,30,9.09a5.57,5.57,0,0,1-1.2.87c.56-.31.28-.25-.2-.1s-1.17.41-1.43.47c-1,.6-1.71,1.22-3.09,2a1.74,1.74,0,0,0-1.44.34l-.49.51c-.87.56-1.87,1.49-2.44,1.82l.1-.1c-1,.67-.8.9-.11.35-.25.26-.51.52-.75.78h-.07a20.89,20.89,0,0,0-1.44,1.68l-1.1,1.37-.14,0c.45-.49.74-1,.94-1.24s.12-.12.16-.11l-.16.11c-.24.1-.26-.22-.08-.59-.33.48-1,1.22-1.64,2a2.47,2.47,0,0,0-.64.09c0-.24-.37-.19-.54-.34a4.88,4.88,0,0,0-.79.88c-.33.44-.62.91-.56,1,.29-.3.22-.13.12.06l-.08.09a4.65,4.65,0,0,0-.53.85,1,1,0,0,0-.25.08l0-.11c0-.08-.18.05-.36.27a1.3,1.3,0,0,0-.35.35,4.55,4.55,0,0,1,.25-.49,4.48,4.48,0,0,0-.46.76.09.09,0,0,0,.06,0c-.09.15-.18.3-.26.46a2.22,2.22,0,0,1-.31.34c.07-.07.19-.2.19-.14-.18.28-.37.56-.55.85.25-.36.3-.34.26-.18s-.16.41-.23.62l-.12.25c-.17.32-.5,1-.51.86l.21-.52c-.4.61-.56,1.5-1,2.14-.06,0,0-.26,0-.31-.2.85-.53,1.6-.85,2.83,0-.26,0-.52,0-.77a13.8,13.8,0,0,1-.57,2.16l-.82,2.53c.08-.16.19-.46.19-.26-.17.91-.45,1.57-.49,1.12a18.41,18.41,0,0,1-.36,2.21,9,9,0,0,0-.2,2.48Zm68.38-6,0,0-.24.06,0,.11A1.34,1.34,0,0,1,74.42,34.16Z"></path><path class="cls-4" d="M587.64,10.32V4.55h1.74l1,3.94,1-3.94h1.75v5.77h-1.08V5.78L591,10.32h-1.12l-1.14-4.54v4.54Zm-3.61,0V5.52h-1.71v-1h4.58v1h-1.71v4.8Zm8.48-7.55a6.6,6.6,0,0,0-9.33,9.34,6.58,6.58,0,0,0,9.33,0h0a6.61,6.61,0,0,0,0-9.34ZM587.84,0a7.38,7.38,0,0,1,5.26,2.18,7.44,7.44,0,0,1,0,10.52h0A7.44,7.44,0,0,1,582.59,2.18h0A7.41,7.41,0,0,1,587.84,0Z"></path><path class="cls-2" d="M254.81,40V44H226V11.32h28v4.07H231.66V25.44h19.91v4H231.66V40Zm-52.45-9.86c3.59,0,6.34-.64,8.23-1.92a6.19,6.19,0,0,0,2.83-5.46,6.15,6.15,0,0,0-2.83-5.45c-1.89-1.26-4.64-1.89-8.23-1.89h-9.64V30.11ZM213.59,44,205,34c-1.06.06-1.89.09-2.5.09h-9.81V44H187V11.32h15.49q7.72,0,12.14,3a9.62,9.62,0,0,1,4.43,8.37,9.64,9.64,0,0,1-2.27,6.45,13,13,0,0,1-6.47,3.87l9.42,11Zm-52.67.37q-7.95,0-12.37-3.74t-4.43-10.75V11.32h5.68V29.74q0,10.52,11.18,10.51,5.45,0,8.34-2.59t2.89-7.92V11.32h5.5v18.6q0,7.06-4.42,10.77T160.92,44.41Zm-39.8-14.35q5.4,0,8.23-1.89a6.16,6.16,0,0,0,2.84-5.44,6.16,6.16,0,0,0-2.84-5.45q-2.84-1.89-8.23-1.89h-9.64V30.06Zm.17-18.74q7.72,0,12.14,3a9.6,9.6,0,0,1,4.43,8.37,9.58,9.58,0,0,1-4.43,8.36q-4.43,3-12.14,3h-9.81V44H105.8V11.32Z"></path><path class="cls-3" d="M568.72,44.6a30.91,30.91,0,0,1-8.46-1.15,18.26,18.26,0,0,1-6.4-3l2-3.64a18,18,0,0,0,5.68,2.73,24.47,24.47,0,0,0,7.13,1c3.21,0,5.62-.45,7.21-1.37a4.14,4.14,0,0,0,2.38-3.67,3.37,3.37,0,0,0-1.3-2.74,9.27,9.27,0,0,0-3.22-1.61c-1.27-.37-3.08-.79-5.41-1.26a61.07,61.07,0,0,1-7.06-1.78,11.88,11.88,0,0,1-4.61-2.73,6.61,6.61,0,0,1-1.91-5,7.51,7.51,0,0,1,1.64-4.72,11,11,0,0,1,5-3.36,23.49,23.49,0,0,1,8.26-1.26,31.18,31.18,0,0,1,6.76.74A20,20,0,0,1,582.14,14l-1.83,3.74a23.28,23.28,0,0,0-10.65-2.66q-4.71,0-7.07,1.45a4.29,4.29,0,0,0-2.36,3.74A3.34,3.34,0,0,0,561.56,23a9.81,9.81,0,0,0,3.3,1.64c1.32.38,3.1.8,5.36,1.23a64.36,64.36,0,0,1,7,1.78,12.16,12.16,0,0,1,4.57,2.71,6.45,6.45,0,0,1,1.91,4.91A7.41,7.41,0,0,1,582.08,40,11,11,0,0,1,577,43.36a24.42,24.42,0,0,1-8.31,1.24m-36.15-29H519.26V11.51h32.1v4.07H538.05V44.22h-5.48Zm-19.36-4.07V44.22h-4.54L485.38,19.83V44.22h-5.55V11.51h4.55L507.67,35.9V11.51ZM470.85,40.16v4.06H442.69V11.51h27.39v4.07H448.23v10h19.46v4H448.23V40.16Zm-45.13,4.06-.06-23.83-14,19.86h-2.55l-14-19.72V44.22h-5.32V11.51h4.55l16.19,23,16-23H431L431,44.22Zm-45-4.06v4.06H352.58V11.51H380v4.07H358.13v10h19.46v4H358.13V40.16Zm-61.1-28.65h5.54V40.16h21v4.06H319.65Zm-9,28.65v4.06H282.5V11.51h27.39v4.07H288v10H307.5v4H288V40.16Z"></path></svg>