<svg xmlns="http://www.w3.org/2000/svg" id="Layer_1" data-name="Layer 1" viewBox="0 0 868.29 77.36"><defs><style>      .cls-1 {        fill: #8f9c75;      }    </style></defs><g><path class="cls-1" d="M229.87,33.51c-6-2.31-12.11-4.5-18.08-7a24.58,24.58,0,0,1-9.12-6c-3.78-4.2-3-8.44,2.13-10.94,4.83-2.35,9.87-2,14.87-.55a61,61,0,0,1,15.94,7.71c4.74,3,9.29,6.4,14,9.44A36.45,36.45,0,0,0,272,32.37c18.3-.94,36.64-1.12,55-1.62,2.78-.08,5.57-.27,9.58-.47-2.92-2.81-5.76-3.14-8.21-4.13-7.88-3.18-15.49-6.86-21.71-12.82-2.45-2.35-5.08-5-3.68-8.8C304.45.41,308.3,0,312.1,0a28.85,28.85,0,0,1,11.47,2.6c4.65,2,9.26,4.17,13.68,6.64,7.63,4.26,15.14,8.73,22.63,13.25,9.13,5.52,18.59,8.65,29.63,7.65,13.74-1.25,27.6-1.33,41.4-1.78,2.35-.08,6.12-.95,6.17,2.46s-3.79,2.71-6.07,2.53c-5.78-.47-10.1,2-14.6,5.29-20.76,15-43.25,26.46-68.11,33a42,42,0,0,1-15.1,1.27c-2.58-.27-5.13-.87-6-3.83s.68-4.9,2.63-6.69A50.51,50.51,0,0,1,341.19,55,243.9,243.9,0,0,1,378,40.16c3.18-1,6.61-1.49,9.91-3.79-2-1.7-4.23-1.07-6.18-1-21.71.31-43.43.75-65.14,1A12,12,0,0,0,307.74,40c-10.49,9.85-21.36,19.29-33.85,26.62-5.6,3.28-11.28,6.39-17.64,8a20.16,20.16,0,0,1-8.37.69c-4.79-.77-6.68-4.2-4.71-8.67,1.62-3.68,4.51-6.45,7.44-9.11a120.66,120.66,0,0,1,22.12-15.51c1.9-1.07,3.78-2.18,6.79-3.92-3.46-1.4-5.91-1-8.23-.85-20.24,1.52-40.46,3.22-60.7,4.56A12.86,12.86,0,0,0,200.5,47c-2.95,3.78-6,7.47-9.05,11.18a63,63,0,0,1-15.21,13.32A28.42,28.42,0,0,1,160.18,76c-3.44-.07-7-.17-8.76-3.79s.2-6.55,2.49-9.18a67.06,67.06,0,0,1,14.72-12.62c1.86-1.2,4.17-1.76,5.83-4.26-2.44-1.19-4.88-.49-7.13-.34-19.7,1.3-39.38,2.77-59.07,4-3.68.23-6.22,1.42-8.4,4.52A63.42,63.42,0,0,1,80.79,72.13a34.81,34.81,0,0,1-17.63,5.23c-2.59,0-5.24-.39-6.52-3s.11-4.94,1.82-6.91A56.18,56.18,0,0,1,75.23,54.75c1.19-.63,2.7-.93,3.35-2.49-1.11-2.51-3.36-1.34-5.06-1.37-13.81-.27-27.64.22-41.36-2C23.46,47.48,15,45.41,7.39,40.82,1.53,37.29-.83,33.32.26,29.52c1.17-4.08,6.08-6.22,12.92-5.43A47.42,47.42,0,0,1,32.11,31c1.21.72,2.42,1.45,3.59,2.23C58,48.12,51.11,45.52,78.83,45.73c15.24.11,30.43-1.17,45.62-2.09a9.84,9.84,0,0,0,2.2-.71c-1-2.41-3.24-2.23-5-2.87A65.62,65.62,0,0,1,100.52,27.9a29.8,29.8,0,0,1-5.64-6.24c-3.07-4.87-1.07-8.8,4.67-9.72,2.56-.41,5,.21,7.51.78,9.74,2.22,18.59,6.55,27.14,11.53,6.58,3.83,13,7.87,19.56,11.79,5.68,3.4,11.53,5.12,18.44,4.35,19.24-2.15,38.54-3.69,57.82-5.47ZM334.18,66.24c15.06,2.88,58.95-14.66,72.47-28.67C380.55,44.32,355.91,51.39,334.18,66.24Zm-36.7-25c-16.87-.64-45.49,16.93-48.8,29.91C268.93,66.79,283.44,54.44,297.48,41.26ZM99.92,18c6.25,12,29.06,22.14,44.61,19.77C132.68,26.84,110.14,16.85,99.92,18ZM194,44.56c-15.19,5.76-28.67,11.51-38.12,24.86C169.27,72.61,184.77,62.51,194,44.56ZM356.16,27.42c-.88-2.09-2.87-2.77-4.51-3.72-9.24-5.38-18.13-11.4-28.06-15.49a56,56,0,0,0-9.69-2.82c-1.81-.39-4-.78-5,1.68C316.71,17.3,338.09,26.52,356.16,27.42ZM243.22,29.37c-8.31-7.18-17.05-13.51-28-16a18.39,18.39,0,0,0-5-.06c-1.42.09-3,.5-3.55,1.89-.78,2,1,3.05,2.37,3.86A75.73,75.73,0,0,0,243.22,29.37Zm-204,14c-7.93-7.61-16.93-13-28-14.32-2-.24-4.39,0-5.15,1.94-.83,2.12,1.24,3.52,2.88,4.56C18.13,41.39,28.28,43.68,39.21,43.38ZM61.76,71.52C74.9,71.44,87.42,63.78,91.12,54,80.24,57.52,70.59,62.08,61.76,71.52Z"></path><path class="cls-1" d="M638.27,34.92c19.28,1.78,38.59,3.32,57.82,5.47,6.91.77,12.77-1,18.44-4.35,6.53-3.92,13-8,19.56-11.79,8.56-5,17.4-9.31,27.14-11.53,2.5-.57,5-1.19,7.51-.78,5.75.92,7.75,4.85,4.67,9.72a29.8,29.8,0,0,1-5.64,6.24,65.52,65.52,0,0,1-21.14,12.16c-1.74.64-4,.46-5,2.87a9.84,9.84,0,0,0,2.2.71c15.2.92,30.38,2.2,45.62,2.09,27.72-.21,20.86,2.39,43.13-12.5,1.17-.78,2.38-1.51,3.59-2.23a47.42,47.42,0,0,1,18.93-6.91c6.84-.79,11.76,1.35,12.92,5.43,1.09,3.8-1.26,7.77-7.13,11.3-7.61,4.59-16.07,6.66-24.77,8.07-13.72,2.22-27.55,1.73-41.36,2-1.69,0-3.95-1.14-5.06,1.37.65,1.56,2.16,1.86,3.35,2.49a56.18,56.18,0,0,1,16.77,12.68c1.71,2,3.14,4.23,1.82,6.91s-3.93,3.07-6.52,3a34.81,34.81,0,0,1-17.63-5.23,63.39,63.39,0,0,1-19.06-17.76c-2.19-3.1-4.73-4.29-8.41-4.52-19.69-1.24-39.37-2.71-59.06-4-2.26-.15-4.7-.85-7.14.34,1.66,2.5,4,3.06,5.83,4.26a67.34,67.34,0,0,1,14.73,12.62c2.28,2.63,4.23,5.56,2.48,9.18S711.55,76,708.11,76a28.38,28.38,0,0,1-16.05-4.5,62.84,62.84,0,0,1-15.21-13.32c-3-3.71-6.11-7.4-9.06-11.18a12.86,12.86,0,0,0-10.08-5.13c-20.25-1.34-40.47-3-60.7-4.56-2.33-.17-4.77-.55-8.24.85,3,1.74,4.9,2.85,6.79,3.92a121.07,121.07,0,0,1,22.13,15.51c2.92,2.66,5.81,5.43,7.43,9.11,2,4.47.08,7.9-4.71,8.67a20.16,20.16,0,0,1-8.37-.69c-6.36-1.66-12-4.77-17.64-8C581.91,59.33,571,49.89,560.55,40a12,12,0,0,0-8.86-3.71c-21.71-.25-43.42-.69-65.14-1-1.94,0-4.16-.66-6.18,1,3.31,2.3,6.73,2.76,9.91,3.79A243.9,243.9,0,0,1,527.1,55a50.8,50.8,0,0,1,11.33,7.34c1.94,1.79,3.41,3.87,2.62,6.69s-3.38,3.56-6,3.83A42,42,0,0,1,520,71.6c-24.86-6.5-47.35-18-68.1-33-4.51-3.24-8.83-5.76-14.61-5.29-2.28.18-6.12,1-6.07-2.53s3.82-2.54,6.17-2.46c13.81.45,27.66.53,41.4,1.78,11,1,20.5-2.13,29.64-7.65,7.48-4.52,15-9,22.63-13.25A151.16,151.16,0,0,1,544.72,2.6,28.86,28.86,0,0,1,556.2,0c3.79,0,7.65.41,9.17,4.53,1.4,3.78-1.23,6.45-3.68,8.8-6.22,6-13.82,9.64-21.71,12.82-2.45,1-5.28,1.32-8.21,4.13,4,.2,6.8.39,9.58.47,18.33.5,36.67.68,55,1.62a36.45,36.45,0,0,0,22.33-6.16c4.74-3,9.29-6.4,14-9.44a60.8,60.8,0,0,1,15.93-7.71c5-1.42,10-1.8,14.87.55,5.12,2.5,5.92,6.74,2.14,10.94a24.54,24.54,0,0,1-9.13,6c-6,2.46-12,4.65-18.08,7ZM461.64,37.57c13.53,14,57.41,31.55,72.47,28.67C512.39,51.39,487.75,44.32,461.64,37.57Zm158,33.6c-3.3-13-31.93-30.55-48.8-29.91C584.85,54.44,599.36,66.79,619.61,71.17Zm104.16-33.4C739.31,40.14,762.12,30,768.38,18,758.15,16.85,735.62,26.84,723.77,37.77Zm-11.4,31.65c-9.44-13.35-22.93-19.1-38.12-24.86C683.52,62.51,699,72.61,712.37,69.42ZM559.44,7.07c-1-2.46-3.24-2.07-5.05-1.68a56,56,0,0,0-9.69,2.82c-9.93,4.09-18.82,10.11-28.06,15.49-1.64.95-3.63,1.63-4.5,3.72C530.2,26.52,551.58,17.3,559.44,7.07Zm99.8,12c1.36-.81,3.15-1.84,2.37-3.86-.53-1.39-2.12-1.8-3.55-1.89a18.39,18.39,0,0,0-5,.06c-10.91,2.49-19.65,8.82-28,16A75.73,75.73,0,0,0,659.24,19.06Zm200.12,16.5c1.64-1,3.71-2.44,2.88-4.56-.75-1.94-3.17-2.18-5.15-1.94-11.07,1.32-20.08,6.71-28,14.32C840,43.68,850.17,41.39,859.36,35.56ZM777.17,54c3.7,9.79,16.22,17.45,29.36,17.53C797.7,62.08,788.05,57.52,777.17,54Z"></path></g></svg>